<svg xmlns="http://www.w3.org/2000/svg" width="459.518" height="363.878" viewBox="0 0 459.518 363.878">
  <g id="OBJECTS" transform="translate(-16.141 -81.062)">
    <g id="Group_6" data-name="Group 6">
      <path id="Path_1" data-name="Path 1" d="M267.949,407.57S81.889,411.719,73.993,349.9c-9.241-72.339-1.146-49.19-24.259-141.08C25.163,111.14,99.862,77.266,161.683,92.953c56.571,14.356,60.673,85.453,137.74,68.18,114.19-25.6,160.827,10.534,165.771,56.033,5.315,48.917-26.057,62.534-30.924,126.243S421.51,400.895,267.949,407.57Z" fill="#c8dff7"/>
      <g id="Group_5" data-name="Group 5">
        <g id="Group_1" data-name="Group 1">
          <path id="Path_2" data-name="Path 2" d="M42,204.667a1,1,0,0,1-.975-.781c-9.775-43.483-.219-70.361,9.519-85.252C61.14,102.429,73.9,96.657,74.436,96.419a1,1,0,0,1,.81,1.829c-.128.056-12.832,5.827-23.1,21.586-9.486,14.562-18.777,40.888-9.172,83.613a1,1,0,0,1-.757,1.195A.977.977,0,0,1,42,204.667Z" fill="#c8dff7"/>
        </g>
        <g id="Group_2" data-name="Group 2">
          <path id="Path_3" data-name="Path 3" d="M472.919,229.765h-.056a1,1,0,0,1-.943-1.054c1.7-30.937-11.88-49.341-23.568-59.332A74.35,74.35,0,0,0,422.2,154.9a1,1,0,0,1,.507-1.934A74.866,74.866,0,0,1,449.587,167.8c12.061,10.286,26.073,29.222,24.329,61.017A1,1,0,0,1,472.919,229.765Z" fill="#c8dff7"/>
        </g>
        <g id="Group_3" data-name="Group 3">
          <path id="Path_4" data-name="Path 4" d="M469.519,249.456a1.037,1.037,0,0,1-.278-.039,1,1,0,0,1-.683-1.238,97.594,97.594,0,0,0,2.616-13.4,1,1,0,1,1,1.986.23,97.459,97.459,0,0,1-2.681,13.722A1,1,0,0,1,469.519,249.456Z" fill="#c8dff7"/>
        </g>
        <g id="Group_4" data-name="Group 4">
          <path id="Path_5" data-name="Path 5" d="M82.417,94.549a1,1,0,0,1-.446-1.9,48.279,48.279,0,0,1,8.985-3.315,1,1,0,1,1,.462,1.947,46.966,46.966,0,0,0-8.556,3.159A1,1,0,0,1,82.417,94.549Z" fill="#c8dff7"/>
        </g>
      </g>
      <path id="Path_6" data-name="Path 6" d="M240.434,136.713s3.972-13.573,12.58-12.58,9.931,4.966,17.214,1.987,9.932-12.58,21.85-10.263,13.242,15.559,26.815,14.566,18.208-1.324,23.174,6.29Z" fill="#c8dff7"/>
      <path id="Path_7" data-name="Path 7" d="M331.5,105.726s5.445-12.04,20.313-8.451c14.7,3.549,21.032-17.5,34.121-16.15s8.4,13.442,25.1,16.15,21.534-3.88,28.568,8.451Z" fill="#c8dff7"/>
    </g>
    <g id="Group_17" data-name="Group 17">
      <g id="Group_11" data-name="Group 11">
        <g id="Group_7" data-name="Group 7">
          <path id="Path_8" data-name="Path 8" d="M119.627,132.916a.872.872,0,0,1-.675-.319l-14.373-17.438L90.206,132.6a.875.875,0,1,1-1.35-1.113L103.9,113.227a.874.874,0,0,1,1.35,0L120.3,131.484a.876.876,0,0,1-.675,1.432Z" fill="#fff"/>
        </g>
        <g id="Group_10" data-name="Group 10">
          <g id="Group_8" data-name="Group 8">
            <rect id="Rectangle_2" data-name="Rectangle 2" width="70.545" height="90.313" rx="4.162" transform="translate(69.307 131.179)" fill="#fff"/>
          </g>
          <g id="Group_9" data-name="Group 9">
            <rect id="Rectangle_3" data-name="Rectangle 3" width="79.245" height="59.477" rx="2.302" transform="translate(134.318 136.713) rotate(90)" fill="#c8dff7"/>
          </g>
        </g>
      </g>
      <g id="Group_16" data-name="Group 16">
        <g id="Group_12" data-name="Group 12">
          <path id="Path_9" data-name="Path 9" d="M179.487,174.416a.876.876,0,0,1-.674-1.432l15.048-18.258a.875.875,0,0,1,1.35,0l15.048,18.258a.875.875,0,1,1-1.35,1.113l-14.373-17.439L180.163,174.1A.873.873,0,0,1,179.487,174.416Z" fill="#fff"/>
        </g>
        <g id="Group_15" data-name="Group 15">
          <g id="Group_13" data-name="Group 13">
            <rect id="Rectangle_4" data-name="Rectangle 4" width="74.359" height="49.584" rx="2.281" transform="translate(157.356 171.908)" fill="#fff"/>
          </g>
          <g id="Group_14" data-name="Group 14">
            <rect id="Rectangle_5" data-name="Rectangle 5" width="40.932" height="65.706" rx="1.25" transform="translate(227.389 176.234) rotate(90)" fill="#c8dff7"/>
          </g>
        </g>
      </g>
    </g>
    <g id="Group_71" data-name="Group 71">
      <g id="Group_19" data-name="Group 19">
        <path id="Path_10" data-name="Path 10" d="M410.119,189.505l-3.646,5.46a1.6,1.6,0,0,1-1.327.71H254.327a1.6,1.6,0,0,1-1.327-.71l-3.647-5.46a1.6,1.6,0,0,1,1.328-2.483H408.792A1.6,1.6,0,0,1,410.119,189.505Z" fill="#3a4a59"/>
        <g id="Group_18" data-name="Group 18">
          <path id="Path_11" data-name="Path 11" d="M270.341,195.675l4.539,10.681h6.9l-.618-10.681Z" fill="#1c2836"/>
          <path id="Path_12" data-name="Path 12" d="M389.131,195.675l-4.539,10.681h-6.9l.618-10.681Z" fill="#1c2836"/>
        </g>
      </g>
      <g id="Group_50" data-name="Group 50">
        <g id="Group_20" data-name="Group 20">
          <path id="Path_13" data-name="Path 13" d="M387.053,161.633a.5.5,0,0,1-.5-.5V128.448a.5.5,0,0,1,1,0v32.685A.5.5,0,0,1,387.053,161.633Z" fill="#007b7a"/>
        </g>
        <g id="Group_31" data-name="Group 31">
          <g id="Group_30" data-name="Group 30">
            <g id="Group_21" data-name="Group 21">
              <path id="Path_14" data-name="Path 14" d="M401.007,160.4l-.529,1.959-.1.376-.477,1.771-.1.377-4.741,17.574-.1.377-.478,1.77-.1.377-.626,2.322a50.537,50.537,0,0,1-13.4,0l-.626-2.322-.1-.377-.477-1.77-.1-.377-4.741-17.574-.1-.377-.476-1.771-.1-.376L373.1,160.4Z" fill="#ff5177"/>
            </g>
            <g id="Group_23" data-name="Group 23">
              <g id="Group_22" data-name="Group 22">
                <path id="Path_15" data-name="Path 15" d="M400.478,162.36l-.1.377H373.729l-.1-.377Z" fill="#da234f"/>
              </g>
            </g>
            <g id="Group_25" data-name="Group 25">
              <g id="Group_24" data-name="Group 24">
                <path id="Path_16" data-name="Path 16" d="M399.9,164.507l-.1.377H374.307l-.1-.377Z" fill="#da234f"/>
              </g>
            </g>
            <g id="Group_27" data-name="Group 27">
              <g id="Group_26" data-name="Group 26">
                <path id="Path_17" data-name="Path 17" d="M395.057,182.458l-.1.377H379.15l-.1-.377Z" fill="#da234f"/>
              </g>
            </g>
            <g id="Group_29" data-name="Group 29">
              <g id="Group_28" data-name="Group 28">
                <path id="Path_18" data-name="Path 18" d="M394.478,184.605l-.1.377H379.728l-.1-.377Z" fill="#da234f"/>
              </g>
            </g>
          </g>
        </g>
        <g id="Group_34" data-name="Group 34">
          <g id="Group_32" data-name="Group 32">
            <path id="Path_19" data-name="Path 19" d="M388.84,135.585a1.437,1.437,0,0,1-1.515-.564,1.415,1.415,0,0,1-.238-.533,1.385,1.385,0,0,1-.033-.311,1.439,1.439,0,0,1,.333-.922c1.912-2.315,11.592-13.513,16.129-8.829C409,130.081,394.131,134.3,388.84,135.585Z" fill="#00c5bb"/>
          </g>
          <g id="Group_33" data-name="Group 33">
            <path id="Path_20" data-name="Path 20" d="M397.4,129.058l-10.078,5.963a1.415,1.415,0,0,1-.238-.533l10.018-5.93a.291.291,0,0,1,.3.5Z" fill="#009c97"/>
          </g>
        </g>
        <g id="Group_37" data-name="Group 37">
          <g id="Group_35" data-name="Group 35">
            <path id="Path_21" data-name="Path 21" d="M387.054,139.717a1.369,1.369,0,0,1-.034.31,1.417,1.417,0,0,1-.238.533,1.441,1.441,0,0,1-1.518.564c-5.288-1.286-20.157-5.5-14.673-11.158,4.535-4.682,14.214,6.513,16.129,8.828A1.443,1.443,0,0,1,387.054,139.717Z" fill="#00c5bb"/>
          </g>
          <g id="Group_36" data-name="Group 36">
            <path id="Path_22" data-name="Path 22" d="M387.02,140.027a1.417,1.417,0,0,1-.238.533L376.7,134.6a.291.291,0,0,1,.3-.5Z" fill="#009c97"/>
          </g>
        </g>
        <g id="Group_40" data-name="Group 40">
          <g id="Group_38" data-name="Group 38">
            <path id="Path_23" data-name="Path 23" d="M388.156,128.365a1.46,1.46,0,0,1-.438.879,1.586,1.586,0,0,1-.246.19,1.432,1.432,0,0,1-.554.195,1.448,1.448,0,0,1-1.454-.71c-2.717-4.715-9.918-18.388-2.04-18.322C389.943,110.654,388.512,125.384,388.156,128.365Z" fill="#00c5bb"/>
          </g>
          <g id="Group_39" data-name="Group 39">
            <path id="Path_24" data-name="Path 24" d="M387.472,129.434a1.432,1.432,0,0,1-.554.195l-2.633-11.41a.291.291,0,1,1,.567-.128Z" fill="#009c97"/>
          </g>
        </g>
        <g id="Group_43" data-name="Group 43">
          <g id="Group_41" data-name="Group 41">
            <path id="Path_25" data-name="Path 25" d="M388.84,147.474a1.437,1.437,0,0,1-1.515-.564,1.408,1.408,0,0,1-.238-.533,1.37,1.37,0,0,1-.033-.31,1.448,1.448,0,0,1,.333-.923c1.912-2.315,11.592-13.51,16.129-8.829C409,141.973,394.131,146.187,388.84,147.474Z" fill="#00c5bb"/>
          </g>
          <g id="Group_42" data-name="Group 42">
            <path id="Path_26" data-name="Path 26" d="M397.4,140.95l-10.078,5.96a1.408,1.408,0,0,1-.238-.533l10.018-5.929a.292.292,0,0,1,.3.5Z" fill="#009c97"/>
          </g>
        </g>
        <g id="Group_46" data-name="Group 46">
          <g id="Group_44" data-name="Group 44">
            <path id="Path_27" data-name="Path 27" d="M387.054,151.607a1.376,1.376,0,0,1-.034.31,1.445,1.445,0,0,1-1.756,1.1c-5.288-1.284-20.157-5.5-14.673-11.159,4.535-4.681,14.214,6.514,16.129,8.829A1.448,1.448,0,0,1,387.054,151.607Z" fill="#00c5bb"/>
          </g>
          <g id="Group_45" data-name="Group 45">
            <path id="Path_28" data-name="Path 28" d="M387.02,151.917a1.445,1.445,0,0,1-.238.536L376.7,146.49a.292.292,0,0,1,.3-.5Z" fill="#009c97"/>
          </g>
        </g>
        <g id="Group_49" data-name="Group 49">
          <g id="Group_47" data-name="Group 47">
            <path id="Path_29" data-name="Path 29" d="M388.84,158.674a1.437,1.437,0,0,1-1.515-.564,1.408,1.408,0,0,1-.238-.533,1.376,1.376,0,0,1-.033-.31,1.444,1.444,0,0,1,.333-.923c1.912-2.315,11.592-13.512,16.129-8.829C409,153.17,394.131,157.387,388.84,158.674Z" fill="#00c5bb"/>
          </g>
          <g id="Group_48" data-name="Group 48">
            <path id="Path_30" data-name="Path 30" d="M397.4,152.148l-10.078,5.962a1.408,1.408,0,0,1-.238-.533l10.018-5.929a.291.291,0,1,1,.3.5Z" fill="#009c97"/>
          </g>
        </g>
      </g>
      <g id="Group_55" data-name="Group 55">
        <g id="Group_51" data-name="Group 51">
          <path id="Path_31" data-name="Path 31" d="M291.026,180.454h.865v-1.292H259.16a3.929,3.929,0,1,0,0,7.859h32.731V185.9h-.865Z" fill="#ff5177"/>
        </g>
        <g id="Group_52" data-name="Group 52">
          <path id="Path_32" data-name="Path 32" d="M291.25,180.454V185.9H261.216a2.689,2.689,0,0,1-2.653-2.722,2.758,2.758,0,0,1,.777-1.928,2.615,2.615,0,0,1,1.876-.8Z" fill="#fff"/>
        </g>
        <g id="Group_53" data-name="Group 53">
          <path id="Path_33" data-name="Path 33" d="M291.25,181.833v.833H261.993a.417.417,0,0,1-.416-.415v0a.417.417,0,0,1,.416-.415Z" fill="#c8dff7"/>
        </g>
        <g id="Group_54" data-name="Group 54">
          <path id="Path_34" data-name="Path 34" d="M291.25,183.884v.833H261.993a.417.417,0,0,1-.416-.415v0a.417.417,0,0,1,.416-.415Z" fill="#c8dff7"/>
        </g>
      </g>
      <g id="Group_60" data-name="Group 60">
        <g id="Group_56" data-name="Group 56">
          <path id="Path_35" data-name="Path 35" d="M291.026,172.959h.865v-1.292H259.16a3.929,3.929,0,1,0,0,7.859h32.731v-1.119h-.865Z" fill="#4178e6"/>
        </g>
        <g id="Group_57" data-name="Group 57">
          <path id="Path_36" data-name="Path 36" d="M291.25,172.959v5.447H261.216a2.689,2.689,0,0,1-2.653-2.722,2.758,2.758,0,0,1,.777-1.928,2.615,2.615,0,0,1,1.876-.8Z" fill="#fff"/>
        </g>
        <g id="Group_58" data-name="Group 58">
          <path id="Path_37" data-name="Path 37" d="M291.25,174.338v.833H261.993a.417.417,0,0,1-.416-.415v0a.417.417,0,0,1,.416-.415Z" fill="#c8dff7"/>
        </g>
        <g id="Group_59" data-name="Group 59">
          <path id="Path_38" data-name="Path 38" d="M291.25,176.389v.833H261.993a.418.418,0,0,1-.416-.416v0a.417.417,0,0,1,.416-.415Z" fill="#c8dff7"/>
        </g>
      </g>
      <g id="Group_65" data-name="Group 65">
        <g id="Group_61" data-name="Group 61">
          <path id="Path_39" data-name="Path 39" d="M328.871,172.594h.865V171.3H297.005a3.93,3.93,0,0,0,0,7.86h32.731v-1.119h-.865Z" fill="#ffc428"/>
        </g>
        <g id="Group_62" data-name="Group 62">
          <path id="Path_40" data-name="Path 40" d="M329.1,172.594v5.448H299.061a2.689,2.689,0,0,1-2.653-2.723,2.758,2.758,0,0,1,.777-1.928,2.616,2.616,0,0,1,1.876-.8Z" fill="#fff"/>
        </g>
        <g id="Group_63" data-name="Group 63">
          <path id="Path_41" data-name="Path 41" d="M329.1,173.973v.833H299.838a.417.417,0,0,1-.415-.415v0a.417.417,0,0,1,.415-.416Z" fill="#c8dff7"/>
        </g>
        <g id="Group_64" data-name="Group 64">
          <path id="Path_42" data-name="Path 42" d="M329.1,176.024v.833H299.838a.417.417,0,0,1-.415-.415v0a.417.417,0,0,1,.415-.415Z" fill="#c8dff7"/>
        </g>
      </g>
      <g id="Group_70" data-name="Group 70">
        <g id="Group_66" data-name="Group 66">
          <path id="Path_43" data-name="Path 43" d="M328.871,180.454h.865v-1.292H297.005a3.929,3.929,0,0,0,0,7.859h32.731V185.9h-.865Z" fill="#00c5bb"/>
        </g>
        <g id="Group_67" data-name="Group 67">
          <path id="Path_44" data-name="Path 44" d="M329.1,180.454V185.9H299.061a2.689,2.689,0,0,1-2.653-2.722,2.758,2.758,0,0,1,.777-1.928,2.616,2.616,0,0,1,1.876-.8Z" fill="#fff"/>
        </g>
        <g id="Group_68" data-name="Group 68">
          <path id="Path_45" data-name="Path 45" d="M329.1,181.833v.833H299.838a.417.417,0,0,1-.415-.415v0a.417.417,0,0,1,.415-.415Z" fill="#c8dff7"/>
        </g>
        <g id="Group_69" data-name="Group 69">
          <path id="Path_46" data-name="Path 46" d="M329.1,183.884v.833H299.838a.417.417,0,0,1-.415-.415v0a.417.417,0,0,1,.415-.415Z" fill="#c8dff7"/>
        </g>
      </g>
    </g>
    <g id="Group_123" data-name="Group 123">
      <g id="Group_72" data-name="Group 72">
        <ellipse id="Ellipse_1" data-name="Ellipse 1" cx="179.954" cy="8.883" rx="179.954" ry="8.883" transform="translate(70.529 411.662)" fill="#c8dff7"/>
      </g>
      <g id="Group_122" data-name="Group 122">
        <g id="Group_86" data-name="Group 86">
          <g id="Group_74" data-name="Group 74">
            <g id="Group_73" data-name="Group 73">
              <path id="Path_47" data-name="Path 47" d="M408.7,362.664H100.395c-5.779-24.247-26.8-118.311-6.556-124.481,23.251-7.089,124.2-9.925,157.374,0a14.422,14.422,0,0,1,2.135.825q.433.209.854.442a7.5,7.5,0,0,1,1.681-1.006,6.743,6.743,0,0,1,.717-.261c23.252-7.089,124.2-9.925,157.374,0C442.806,246.808,416.172,338.735,408.7,362.664Z" fill="#4178e6"/>
            </g>
          </g>
          <g id="Group_76" data-name="Group 76">
            <g id="Group_75" data-name="Group 75">
              <path id="Path_48" data-name="Path 48" d="M103.151,309.983a.9.9,0,0,1-.884-.756c-.78-4.868-1.815-10.13-2.815-15.22-4.4-22.378-8.949-45.518,4.575-49.952,16.558-5.431,88.627-4.02,91.687-3.957a.9.9,0,0,1-.037,1.794c-.747-.015-74.821-1.468-91.091,3.868-12.016,3.94-7.623,26.288-3.373,47.9,1,5.1,2.041,10.382,2.826,15.281a.9.9,0,0,1-.744,1.028A.884.884,0,0,1,103.151,309.983Z" fill="#285fcf"/>
            </g>
          </g>
          <g id="Group_78" data-name="Group 78">
            <g id="Group_77" data-name="Group 77">
              <path id="Path_49" data-name="Path 49" d="M190.648,344.306c-16.309,0-33.686-.2-48.2-.835a.9.9,0,0,1,.078-1.793c28.279,1.233,67.5.83,88.355.479a13.82,13.82,0,0,0,9.869-4.3,13.256,13.256,0,0,0,3.686-9.645c-.861-25.264-4.267-66.408-4.3-66.821a.9.9,0,0,1,1.788-.148c.035.413,3.444,41.6,4.306,66.908a15.034,15.034,0,0,1-4.178,10.942,15.6,15.6,0,0,1-11.14,4.862C220.73,344.122,206.173,344.306,190.648,344.306Z" fill="#285fcf"/>
            </g>
          </g>
          <g id="Group_80" data-name="Group 80">
            <g id="Group_79" data-name="Group 79">
              <path id="Path_50" data-name="Path 50" d="M408.993,309.983a.872.872,0,0,1-.143-.012.9.9,0,0,1-.744-1.028c.785-4.9,1.823-10.177,2.826-15.281,4.249-21.614,8.643-43.962-3.373-47.9-16.271-5.336-90.345-3.883-91.091-3.868h-.019a.9.9,0,0,1-.018-1.794c3.06-.063,75.128-1.474,91.687,3.957,13.524,4.434,8.974,27.574,4.575,49.953-1,5.089-2.035,10.351-2.815,15.219A.9.9,0,0,1,408.993,309.983Z" fill="#285fcf"/>
            </g>
          </g>
          <g id="Group_82" data-name="Group 82">
            <g id="Group_81" data-name="Group 81">
              <path id="Path_51" data-name="Path 51" d="M321.5,344.306c-15.526,0-30.081-.184-40.264-.355a15.6,15.6,0,0,1-11.14-4.862,15.035,15.035,0,0,1-4.179-10.942c.862-25.307,4.272-66.495,4.306-66.908a.9.9,0,0,1,1.789.148c-.035.413-3.441,41.558-4.3,66.821a13.255,13.255,0,0,0,3.685,9.645,13.82,13.82,0,0,0,9.87,4.3c20.859.351,60.076.753,88.354-.479a.9.9,0,0,1,.079,1.793C355.184,344.1,337.8,344.306,321.5,344.306Z" fill="#285fcf"/>
            </g>
          </g>
          <g id="Group_85" data-name="Group 85">
            <g id="Group_84" data-name="Group 84">
              <g id="Group_83" data-name="Group 83">
                <path id="Path_52" data-name="Path 52" d="M255.906,362.664h-2.552c2.316-49.846.709-104.332-.006-123.656q.433.209.854.442a7.5,7.5,0,0,1,1.681-1.006C256.589,257.371,258.239,312.35,255.906,362.664Z" fill="#285fcf"/>
              </g>
            </g>
          </g>
        </g>
        <g id="Group_97" data-name="Group 97">
          <g id="Group_88" data-name="Group 88">
            <g id="Group_87" data-name="Group 87">
              <rect id="Rectangle_6" data-name="Rectangle 6" width="325.806" height="42.817" rx="13.804" transform="translate(90.436 349.904)" fill="#285fcf"/>
            </g>
          </g>
          <g id="Group_90" data-name="Group 90">
            <g id="Group_89" data-name="Group 89">
              <path id="Path_53" data-name="Path 53" d="M379.893,358.844c0,2.754-59.533,4.987-132.971,4.987s-132.971-2.233-132.971-4.987,59.533-4.987,132.971-4.987S379.893,356.09,379.893,358.844Z" fill="#1e41b9"/>
            </g>
          </g>
          <g id="Group_92" data-name="Group 92">
            <g id="Group_91" data-name="Group 91">
              <rect id="Rectangle_7" data-name="Rectangle 7" width="270.407" height="8.553" transform="translate(127.343 384.169)" fill="#1e41b9"/>
            </g>
          </g>
          <g id="Group_94" data-name="Group 94">
            <g id="Group_93" data-name="Group 93">
              <path id="Path_54" data-name="Path 54" d="M122.064,392.721c6.539-11.334,4.934-31.424,3.3-42.817h2.516c5.285,14.64,7.012,35.337,7.483,42.817Z" fill="#1e41b9"/>
            </g>
          </g>
          <g id="Group_96" data-name="Group 96">
            <g id="Group_95" data-name="Group 95">
              <path id="Path_55" data-name="Path 55" d="M389.716,392.721c-6.539-11.334-4.934-31.424-3.3-42.817H383.9c-5.286,14.64-7.013,35.337-7.484,42.817Z" fill="#1e41b9"/>
            </g>
          </g>
        </g>
        <g id="Group_99" data-name="Group 99">
          <g id="Group_98" data-name="Group 98">
            <path id="Path_56" data-name="Path 56" d="M138.191,421.5H127.9a4.3,4.3,0,0,1-4.014-2.766l-7.422-19.428-2.514-6.586h27.165l.372,6.586.992,17.654A4.3,4.3,0,0,1,138.191,421.5Z" fill="#1e41b9"/>
          </g>
        </g>
        <g id="Group_100" data-name="Group 100" opacity="0.8" style="mix-blend-mode: multiply;isolation: isolate">
          <path id="Path_57" data-name="Path 57" d="M141.118,392.72l.372,6.586H116.467l-2.515-6.586Z" fill="#1e41b9"/>
        </g>
        <g id="Group_102" data-name="Group 102">
          <g id="Group_101" data-name="Group 101">
            <path id="Path_58" data-name="Path 58" d="M397.605,392.72l-2.515,6.586-7.421,19.428a4.3,4.3,0,0,1-4.015,2.766h-10.29a4.3,4.3,0,0,1-4.288-4.54l.992-17.654.369-6.586Z" fill="#1e41b9"/>
          </g>
        </g>
        <g id="Group_103" data-name="Group 103" opacity="0.8" style="mix-blend-mode: multiply;isolation: isolate">
          <path id="Path_59" data-name="Path 59" d="M397.605,392.72l-2.515,6.586H370.068l.369-6.586Z" fill="#1e41b9"/>
        </g>
        <g id="Group_112" data-name="Group 112">
          <g id="Group_105" data-name="Group 105">
            <g id="Group_104" data-name="Group 104">
              <path id="Path_60" data-name="Path 60" d="M117.017,309.093A26.729,26.729,0,0,0,97.194,288.86c-7.744-1.839-16.9-2.292-24.48,2.206-16.73,9.924-6.238,85.35,8.507,98.678s34.147,11.53,41.966,1.7C133.111,378.969,122.9,335.465,117.017,309.093Z" fill="#285fcf"/>
            </g>
          </g>
          <g id="Group_107" data-name="Group 107">
            <g id="Group_106" data-name="Group 106">
              <path id="Path_61" data-name="Path 61" d="M102.58,307.834a.9.9,0,0,1-.877-.715c-.089-.419-2.278-10.085-13.632-10.085-.267,0-.538.006-.816.017-12.126.478-13.667,9.922-13.681,10.017A.9.9,0,1,1,71.8,306.8a13.387,13.387,0,0,1,2.562-5.611c1.948-2.555,5.755-5.658,12.824-5.936,7.089-.281,11.145,2.855,13.294,5.534a15.531,15.531,0,0,1,2.98,5.962.9.9,0,0,1-.879,1.08Z" fill="#1e41b9"/>
            </g>
          </g>
          <g id="Group_109" data-name="Group 109">
            <g id="Group_108" data-name="Group 108">
              <path id="Path_62" data-name="Path 62" d="M103.449,394.135a23.587,23.587,0,0,1-12.635-4.015c-5.462-3.5-9.949-9.032-13.337-16.441a81.241,81.241,0,0,1-5.964-21,133.7,133.7,0,0,1-1.435-25.827.9.9,0,0,1,1.791.112,131.758,131.758,0,0,0,1.421,25.468c1.952,12.35,6.745,28.653,18.492,36.181,7.089,4.543,14.709,4.956,20.385,1.1,8.026-5.447,10.764-18.182,7.51-34.939a.9.9,0,0,1,1.762-.342c3.4,17.495.385,30.9-8.264,36.766A17.123,17.123,0,0,1,103.449,394.135Z" fill="#1e41b9"/>
            </g>
          </g>
          <g id="Group_111" data-name="Group 111">
            <g id="Group_110" data-name="Group 110">
              <path id="Path_63" data-name="Path 63" d="M98.659,312.191s-1.134-11.059-12.476-9.925-11.124,19.419-.851,21.551C100.361,326.936,98.659,312.191,98.659,312.191Z" fill="#1e41b9"/>
            </g>
          </g>
        </g>
        <g id="Group_121" data-name="Group 121">
          <g id="Group_114" data-name="Group 114">
            <g id="Group_113" data-name="Group 113">
              <path id="Path_64" data-name="Path 64" d="M394.9,309.093a26.729,26.729,0,0,1,19.823-20.233c7.744-1.839,16.9-2.292,24.48,2.206,16.73,9.924,6.238,85.35-8.507,98.678s-34.147,11.53-41.966,1.7C378.808,378.969,389.018,335.465,394.9,309.093Z" fill="#285fcf"/>
            </g>
          </g>
          <g id="Group_116" data-name="Group 116">
            <g id="Group_115" data-name="Group 115">
              <path id="Path_65" data-name="Path 65" d="M438.682,307.834a.9.9,0,0,1-.877-.715c-.092-.428-2.376-10.536-14.448-10.068-12.126.478-13.666,9.922-13.68,10.017a.9.9,0,1,1-1.775-.263,13.377,13.377,0,0,1,2.561-5.611c1.949-2.555,5.754-5.658,12.824-5.936,7.091-.283,11.145,2.855,13.294,5.534a15.53,15.53,0,0,1,2.98,5.962.9.9,0,0,1-.879,1.08Z" fill="#1e41b9"/>
            </g>
          </g>
          <g id="Group_118" data-name="Group 118">
            <g id="Group_117" data-name="Group 117">
              <path id="Path_66" data-name="Path 66" d="M408.88,392.934a16.178,16.178,0,0,1-10.231-3.458c-7.775-6.177-10.124-19.534-6.615-37.608a.9.9,0,1,1,1.761.342c-3.375,17.385-1.255,30.12,5.97,35.86,4.613,3.666,11.08,4.062,17.744,1.087,19.929-8.9,22.055-61.752,22.074-62.285a.9.9,0,1,1,1.793.065,189.372,189.372,0,0,1-3.569,28.228c-4.134,19.692-10.717,31.68-19.567,35.631A23.048,23.048,0,0,1,408.88,392.934Z" fill="#1e41b9"/>
            </g>
          </g>
          <g id="Group_120" data-name="Group 120">
            <g id="Group_119" data-name="Group 119">
              <path id="Path_67" data-name="Path 67" d="M413.26,312.191s1.135-11.059,12.477-9.925,11.123,19.419.851,21.551C411.559,326.936,413.26,312.191,413.26,312.191Z" fill="#1e41b9"/>
            </g>
          </g>
        </g>
      </g>
    </g>
    <g id="Group_196" data-name="Group 196">
      <g id="Group_128" data-name="Group 128">
        <g id="Group_124" data-name="Group 124">
          <path id="Path_68" data-name="Path 68" d="M440.1,291.676c-6.132,4.9-11.248-1.991-22.551-2.032-.479,0-.969.007-1.469.033-.19.008-.384.021-.579.033-12.756.872-16.591,20.19-21.723,11.9-3.948-6.381-2.356-22.541-2.356-22.541s13.894-25.377,23.087-28.261,14.653-2.9,21.992,4.189C445.148,263.355,446.583,286.488,440.1,291.676Z" fill="#ff5177"/>
        </g>
        <g id="Group_125" data-name="Group 125">
          <path id="Path_69" data-name="Path 69" d="M417.544,289.644c-.479,0-.969.007-1.469.033-5.7-4.989-17.157-6.073-17.3-6.086a.513.513,0,1,1,.09-1.023C399.5,282.625,411.925,283.8,417.544,289.644Z" fill="#da234f"/>
        </g>
        <g id="Group_126" data-name="Group 126">
          <path id="Path_70" data-name="Path 70" d="M424.779,279.067a.5.5,0,0,1-.481-.364c-3.57-12.581-18.88-15.512-19.034-15.54a.5.5,0,0,1,.179-.984,32.089,32.089,0,0,1,8.473,3.114c5.872,3.135,9.8,7.677,11.344,13.137a.5.5,0,0,1-.345.618A.531.531,0,0,1,424.779,279.067Z" fill="#da234f"/>
        </g>
        <g id="Group_127" data-name="Group 127">
          <path id="Path_71" data-name="Path 71" d="M434.964,271.013a.5.5,0,0,1-.389-.185c-8.634-10.64-25.5-8.128-25.672-8.1a.5.5,0,1,1-.155-.988,38.126,38.126,0,0,1,9.864.014c7.22.927,13.009,3.847,16.74,8.445a.5.5,0,0,1-.073.7A.494.494,0,0,1,434.964,271.013Z" fill="#da234f"/>
        </g>
      </g>
      <g id="Group_137" data-name="Group 137">
        <g id="Group_129" data-name="Group 129">
          <path id="Path_72" data-name="Path 72" d="M193.849,291.565s-7.188,3.178-46.552-2.753l-43.852-1.637-2.484-13.082c20.977-5.266,50-8.9,80.371-12.272,14.787-1.639,24.489,15.42,15.224,27.061A15.991,15.991,0,0,1,193.849,291.565Z" fill="#1c2836"/>
        </g>
        <g id="Group_133" data-name="Group 133">
          <g id="Group_130" data-name="Group 130">
            <path id="Path_73" data-name="Path 73" d="M108.483,287.446l-15.941-.513-1.976-11.4,9.587-.993,2.211-.226,5.041-.523Z" fill="#ffac97"/>
          </g>
          <g id="Group_131" data-name="Group 131">
            <path id="Path_74" data-name="Path 74" d="M90.565,275.533s-13.37-9.521-17.346-16.81-5.835-9.965-7.272-9.88-.721,2.167.007,4.947c.64,2.447,1.622,5.584,2.874,9.661s3.9,8.95,4.952,12.111c.908,2.741,2.6,10.279,5.391,13.227,4.108,4.331,15.994-2.139,15.994-2.139Z" fill="#ffac97"/>
          </g>
          <g id="Group_132" data-name="Group 132">
            <path id="Path_75" data-name="Path 75" d="M104.306,287.312l-5.184-.167-.07-12.493,3.31-.339Z" fill="#1c2836"/>
          </g>
        </g>
        <g id="Group_134" data-name="Group 134">
          <path id="Path_76" data-name="Path 76" d="M99.66,272.5l2.525,16.723a8.033,8.033,0,0,0,7.123.116l-2.151-18.094A10.6,10.6,0,0,0,99.66,272.5Z" fill="#3a4a59"/>
        </g>
        <g id="Group_135" data-name="Group 135">
          <path id="Path_77" data-name="Path 77" d="M181.231,261.84s35.84-2.981,53.392,1.942,20.808,25.848-47.644,28.488Z" fill="#1c2836"/>
        </g>
        <g id="Group_136" data-name="Group 136">
          <path id="Path_78" data-name="Path 78" d="M185.075,287.55q-5.109,0-10.8-.362A216.694,216.694,0,0,1,148.779,284l-44.2-.055a.625.625,0,0,1,0-1.25h0l44.261.055a.621.621,0,0,1,.122.012,214.463,214.463,0,0,0,25.4,3.176c18.278,1.164,32.479-.605,41.064-5.114a.625.625,0,0,1,.581,1.107C208.9,285.67,198.518,287.55,185.075,287.55Z" fill="#3a4a59"/>
        </g>
      </g>
      <g id="Group_146" data-name="Group 146">
        <g id="Group_141" data-name="Group 141">
          <g id="Group_138" data-name="Group 138">
            <path id="Path_79" data-name="Path 79" d="M178.154,338.954l-11.564,10.985-9.5-6.6,6.028-7.521,1.392-1.732,3.169-3.955Z" fill="#ffac97"/>
          </g>
          <g id="Group_139" data-name="Group 139">
            <path id="Path_80" data-name="Path 80" d="M157.089,343.337s-16.168,2.827-24.149.536-11.192-2.846-12.14-1.764,1.035,2.035,3.525,3.47c2.192,1.264,5.114,2.768,8.9,4.741s9.112,3.508,12.1,4.983c2.588,1.28,9.14,5.373,13.2,5.455,5.968.119,9.713-12.886,9.713-12.886Z" fill="#ffac97"/>
          </g>
          <g id="Group_140" data-name="Group 140">
            <path id="Path_81" data-name="Path 81" d="M175.124,341.832l-3.442,3.27-9.258-8.424,2.084-2.594Z" fill="#1c2836"/>
          </g>
        </g>
        <g id="Group_142" data-name="Group 142">
          <path id="Path_82" data-name="Path 82" d="M301.919,345.159q-.109.357-.244.706a13.584,13.584,0,0,1-.568,1.36q-.174.364-.373.722c-3.488,6.343-11.667,9.9-25.485,5.578-14.149-4.432-34.529-36.049-47.66-58.817q-1.281-2.222-2.466-4.318l-.711-1.263q-.507-.9-.99-1.771-.355-.636-.7-1.257c-3.169-5.711-5.576-10.273-6.9-12.82a28.2,28.2,0,0,1-2.542-6.881c-.916-4.137-.616-7.214.592-9.326a6.361,6.361,0,0,1,.52-.776l.008-.014c4.824-6.222,19.344-1.809,31.912,9.634,14.423,13.134,52.457,55.432,55.7,68.14A20.453,20.453,0,0,1,301.919,345.159Z" fill="#1c2836"/>
        </g>
        <g id="Group_143" data-name="Group 143">
          <path id="Path_83" data-name="Path 83" d="M237.472,273.442s1.622,10.816-29.474,31.366L176.091,339.96l-11.627-6.49c9.949-20.555,27.046-46.827,45.008-73.79a13.384,13.384,0,0,1,20.7-1.981C234.271,261.908,237.7,267.3,237.472,273.442Z" fill="#1c2836"/>
        </g>
        <g id="Group_144" data-name="Group 144">
          <path id="Path_84" data-name="Path 84" d="M301.675,345.865a13.584,13.584,0,0,1-.568,1.36q-.174.364-.373.722a21.4,21.4,0,0,1-4.469,1.576,24.358,24.358,0,0,1-5.633.649c-6.833,0-13.96-2.736-20.228-7.887-14.834-12.184-37.285-54.68-41.241-62.3a43.51,43.51,0,0,1-5.741,7.373c-7.795,8.237-18.154,14.55-19.387,15.288l-28.976,33.711a.676.676,0,1,1-1.024-.882l29.046-33.794a.68.68,0,0,1,.17-.14c.146-.087,11.4-6.814,19.474-15.44a38.993,38.993,0,0,0,5.873-7.855.685.685,0,0,1,.6-.354.675.675,0,0,1,.6.37c.257.5,25.717,50.04,41.468,62.981,7.693,6.316,16.692,8.858,24.693,6.965A19.178,19.178,0,0,0,301.675,345.865Z" fill="#3a4a59"/>
        </g>
        <g id="Group_145" data-name="Group 145">
          <path id="Path_85" data-name="Path 85" d="M161.061,334.828l14.477,8.743a8.031,8.031,0,0,0,4.64-5.405l-15.292-9.907A10.6,10.6,0,0,0,161.061,334.828Z" fill="#3a4a59"/>
        </g>
      </g>
      <g id="Group_168" data-name="Group 168">
        <g id="Group_149" data-name="Group 149">
          <g id="Group_147" data-name="Group 147">
            <path id="Path_86" data-name="Path 86" d="M338,277.273l-15.7,10.14,7.791,5.468,12.8-11.67Z" fill="#ff8780"/>
          </g>
          <g id="Group_148" data-name="Group 148">
            <path id="Path_87" data-name="Path 87" d="M362.8,261.313l-28.873,13.662,7.707,10.816S356.79,272.393,362.8,261.313Z" fill="#ff9d14"/>
          </g>
        </g>
        <g id="Group_150" data-name="Group 150">
          <path id="Path_88" data-name="Path 88" d="M378.89,266.463s-8.731-4.6-14.41-5.414-18.311,19.5-36.323,26.048c-21.812,7.932-36.5,12.529-46.235,12.8s14.418,20.641,13.878,35.242c-.541,15.413-4.526,24.593,12.708,21.361,21.632-4.056,52.187-20.28,65.707-32.718s20.55-18.928,21.9-26.5-2.7-18.927-2.7-18.927S382.213,275.932,378.89,266.463Z" fill="#ffc428"/>
        </g>
        <g id="Group_151" data-name="Group 151">
          <path id="Path_89" data-name="Path 89" d="M305.414,333.638a.5.5,0,0,1-.408-.788c8.714-12.411,6.559-33.651,6.536-33.864a.5.5,0,1,1,.995-.107c.023.217,2.215,21.831-6.713,34.546A.5.5,0,0,1,305.414,333.638Z" fill="#ff9d14"/>
        </g>
        <g id="Group_152" data-name="Group 152">
          <path id="Path_90" data-name="Path 90" d="M387.329,281.964a.581.581,0,0,1-.092-.008c-6.869-1.288-10.653-4.846-12.618-7.6a15.724,15.724,0,0,1-2.654-5.778.5.5,0,0,1,.984-.178,15.066,15.066,0,0,0,2.512,5.415c2.7,3.771,6.728,6.181,11.96,7.162a.5.5,0,0,1-.092.991Z" fill="#ff9d14"/>
        </g>
        <g id="Group_153" data-name="Group 153">
          <path id="Path_91" data-name="Path 91" d="M333.926,322.388a.516.516,0,0,1-.116-.013.5.5,0,0,1-.371-.6,107.9,107.9,0,0,1,16.538-37.15,71.787,71.787,0,0,1,10.665-12.329.5.5,0,0,1,.646.764,70.826,70.826,0,0,0-10.517,12.175A106.894,106.894,0,0,0,334.412,322,.5.5,0,0,1,333.926,322.388Z" fill="#ff9d14"/>
        </g>
        <g id="Group_154" data-name="Group 154">
          <path id="Path_92" data-name="Path 92" d="M330.951,322.388a.5.5,0,0,1-.5-.463c-1.08-14.864,8.1-29.629,8.188-29.776a.5.5,0,1,1,.846.533c-.091.144-9.093,14.639-8.036,29.17a.5.5,0,0,1-.463.535Z" fill="#ff9d14"/>
        </g>
        <g id="Group_155" data-name="Group 155">
          <path id="Path_93" data-name="Path 93" d="M360.965,308.058a.5.5,0,0,1-.422-.769c.063-.1,6.391-9.944,15.859-15.309a15.545,15.545,0,0,1,15.388-.256.5.5,0,0,1-.54.842,14.534,14.534,0,0,0-14.355.284c-9.253,5.244-15.447,14.879-15.508,14.976A.5.5,0,0,1,360.965,308.058Z" fill="#ff9d14"/>
        </g>
        <g id="Group_160" data-name="Group 160">
          <g id="Group_156" data-name="Group 156">
            <path id="Path_94" data-name="Path 94" d="M383.949,317.562q-1.059,1.185-2.12,2.312Q379,322.9,376.2,325.5c-23.452,21.892-43.788,22.292-41.465,15.318,1.476-4.431,5.581-9.453,10.472-14.225.446-.436.9-.871,1.36-1.3A169.159,169.159,0,0,1,362.8,312.1c.833-.6,1.609-1.155,2.318-1.652l.208-.146c2.463-1.728,4.023-2.739,4.023-2.739Z" fill="#ffac97"/>
          </g>
          <g id="Group_157" data-name="Group 157">
            <path id="Path_95" data-name="Path 95" d="M347.445,333.156c-.046-2.839-2.236-6.565-2.236-6.565.446-.436.9-.871,1.36-1.3A13.821,13.821,0,0,1,347.445,333.156Z" fill="#1c2836"/>
          </g>
          <g id="Group_158" data-name="Group 158">
            <path id="Path_96" data-name="Path 96" d="M345.823,327.837a139.259,139.259,0,0,0-11.268-18.752c-6.9-9.878-8.609-19.008-15.345-18.785s8.226,36.956,10.93,44.908,5.173,10.818,11.316,9.542S345.823,327.837,345.823,327.837Z" fill="#ffac97"/>
          </g>
          <g id="Group_159" data-name="Group 159">
            <path id="Path_97" data-name="Path 97" d="M381.829,319.874Q379,322.9,376.2,325.5l-13.4-13.4,2.318-1.652.208-.146Z" fill="#1c2836"/>
          </g>
        </g>
        <g id="Group_161" data-name="Group 161">
          <path id="Path_98" data-name="Path 98" d="M360.965,309.18,380.7,324.052s16.494-13.25,15.683-22.443-8.112-10.275-10.816-10.275S373.4,290.522,360.965,309.18Z" fill="#ffc428"/>
        </g>
        <g id="Group_164" data-name="Group 164">
          <g id="Group_162" data-name="Group 162">
            <path id="Path_99" data-name="Path 99" d="M327.1,293.294s3.583-3.74,2.907-6.377-5.064-1.711-5.064-1.711Z" fill="#ff8780"/>
          </g>
          <g id="Group_163" data-name="Group 163">
            <path id="Path_100" data-name="Path 100" d="M318.015,298.21s-7.994-4.575-5.271-9.2c3.516-5.969,11.087-4.876,14.061-3.8,3.443,1.247.035,9.126,1.347,13C328.152,298.21,321.235,301.368,318.015,298.21Z" fill="#ffac97"/>
          </g>
        </g>
        <g id="Group_167" data-name="Group 167">
          <g id="Group_165" data-name="Group 165">
            <path id="Path_101" data-name="Path 101" d="M306.949,295.28c1.234-1.563,4.858-2.441,4.858-2.441s-3.231-2.374-10.87-1.866c0,0-5.34-.059-8.847,6.466-2.773,5.157-3.118,16.025-1.665,15.383,1.064-.47.575-3.042,1.758-6.084a26.346,26.346,0,0,0-.267,5.191c.234,1.72-.078,5.472,1.407,5.315s.516-6.7,1.782-9.51a48.1,48.1,0,0,0-.349,6.2c.052,3.153.253,5.756,1.348,5.52s.84-4.113,1.1-5.832.052-4.846.469-5.576c0,0-.054,6.014.728,7.994s1.791,1.352,1.93-2.627c0,0,.109-7.614,1.6-10.408S306.949,295.28,306.949,295.28Z" fill="#ffac97"/>
          </g>
          <g id="Group_166" data-name="Group 166">
            <path id="Path_102" data-name="Path 102" d="M306.478,295.827l-.268,1.478a25.347,25.347,0,0,1-.727,4.853c-.605,2.139-.22,3.847-.63,5.585s-2.423.339-2.087-3.1a6.576,6.576,0,0,0-1.715-5.321S302.641,295.139,306.478,295.827Z" fill="#ffac97"/>
          </g>
        </g>
      </g>
      <g id="Group_195" data-name="Group 195">
        <g id="Group_169" data-name="Group 169">
          <path id="Path_103" data-name="Path 103" d="M421.744,254.329a10.756,10.756,0,0,1-9.263,8.11c-7.822.992-35.5,2.654-38.691-4.317s9.776-21.45,17.434-26.8,17.39.879,22.938,4.532S423.584,248.722,421.744,254.329Z" fill="#ffac97"/>
        </g>
        <g id="Group_170" data-name="Group 170">
          <path id="Path_104" data-name="Path 104" d="M390.258,241.37h-.023a3.116,3.116,0,0,1-2.426-1.471,2.825,2.825,0,0,1,.556-3.128.375.375,0,0,1,.543.517,2.082,2.082,0,0,0-.437,2.258,2.375,2.375,0,0,0,1.81,1.076.375.375,0,0,1-.023.749Z" fill="#1c2836"/>
        </g>
        <g id="Group_171" data-name="Group 171">
          <path id="Path_105" data-name="Path 105" d="M403.153,261.134a6.029,6.029,0,0,1-3.626-1.185s.307,2.1,5.118,2.284A2.035,2.035,0,0,0,403.153,261.134Z" fill="#ff8780"/>
        </g>
        <g id="Group_174" data-name="Group 174">
          <g id="Group_172" data-name="Group 172">
            <path id="Path_106" data-name="Path 106" d="M405.353,263.064s-10.583,11.356-11.875,15.291a17.325,17.325,0,0,1-9.662-3.14,17.638,17.638,0,0,1-6.189-7.749c-.046-.122-.068-.19-.068-.19l7.382-4.515s3.645-2.839,12.341-1.644A44.487,44.487,0,0,1,405.353,263.064Z" fill="#ffac97"/>
          </g>
          <g id="Group_173" data-name="Group 173">
            <path id="Path_107" data-name="Path 107" d="M397.282,261.117A14.808,14.808,0,0,1,385.3,268.35a18.836,18.836,0,0,1-7.674-.884c-.046-.122-.068-.19-.068-.19l7.382-4.515S388.586,259.922,397.282,261.117Z" fill="#ff8780"/>
          </g>
        </g>
        <g id="Group_175" data-name="Group 175">
          <path id="Path_108" data-name="Path 108" d="M424.363,256.421c-5.348,7.972-19.008,6.644-19.008,6.644l-2.2-1.93s6.048.1,10.162-4.038-.807-8.139-5.9-5.985a8.346,8.346,0,0,0-1.2.63c-.213.133-.426.277-.636.431-4.345,3.153-8.388,10.2-14.148,12.092-6.56,2.153-16.232,1.928-19.252-3.384s3.484-15.222,7.211-18.026c0,0,4.3.43,5.217,4.229s.413,4.668,4.03,6.263,9.582-.336,12.589-3.558a17.8,17.8,0,0,1-.894-3.264c-.062-.346-.116-.7-.154-1.076a9.01,9.01,0,0,1,.766-5.2c2.056-3.778-6-3.217-5.516-9.685,0,0-8.962-15.119.323-19.085,3.917-1.674,7.3,5.588,7.3,5.588-.487-6.626,4.015-5.408,5.327-3.517s1.349,9.555,1.349,9.555.315-6.535,2.31-6.668,4.042,3.2,3.909,10.9,6.109,12.684,6.109,12.684a9.949,9.949,0,0,1,1.776,2.023C425.514,244.6,428.375,250.442,424.363,256.421Z" fill="#1c2836"/>
        </g>
        <g id="Group_177" data-name="Group 177">
          <g id="Group_176" data-name="Group 176">
            <path id="Path_109" data-name="Path 109" d="M375.471,250.944a.471.471,0,0,0,.135.177,5.674,5.674,0,0,0,5.76.358.478.478,0,0,0,.254-.627l0-.007a.479.479,0,0,0-.624-.247,4.782,4.782,0,0,1-4.783-.219.478.478,0,0,0-.739.565Z" fill="#3a4a59"/>
          </g>
        </g>
        <g id="Group_179" data-name="Group 179">
          <g id="Group_178" data-name="Group 178">
            <path id="Path_110" data-name="Path 110" d="M393.947,239.994a.711.711,0,0,0,1.315.114,5,5,0,0,0-1.441-6.417.712.712,0,0,0-.822,1.163c2.4,1.7,1.05,4.495.991,4.613A.718.718,0,0,0,393.947,239.994Z" fill="#1c2836"/>
          </g>
        </g>
        <g id="Group_180" data-name="Group 180">
          <path id="Path_111" data-name="Path 111" d="M387.053,235.293a42.765,42.765,0,0,1-7.536,2.481c-2.638.384.87,4.418.87,4.418Z" fill="#ffac97"/>
        </g>
        <g id="Group_182" data-name="Group 182">
          <g id="Group_181" data-name="Group 181">
            <path id="Path_112" data-name="Path 112" d="M403.064,256.8a.627.627,0,0,0,.094.224.618.618,0,0,0,.857.167,9.652,9.652,0,0,1,7.245-1.322.618.618,0,0,0,.32-1.193,10.8,10.8,0,0,0-8.255,1.49A.62.62,0,0,0,403.064,256.8Z" fill="#ff8780"/>
          </g>
        </g>
        <g id="Group_184" data-name="Group 184">
          <g id="Group_183" data-name="Group 183">
            <path id="Path_113" data-name="Path 113" d="M406.6,255.567a.612.612,0,0,0,.147.291,2.583,2.583,0,0,1,.4,1.292.618.618,0,0,0,1.234-.065,3.757,3.757,0,0,0-.717-2.054.618.618,0,0,0-1.064.536Z" fill="#ff8780"/>
          </g>
        </g>
        <g id="Group_187" data-name="Group 187">
          <g id="Group_185" data-name="Group 185">
            <path id="Path_114" data-name="Path 114" d="M405.41,255.7s-.239,2.758,1.327,2.8.738-3.5.738-3.5A4.49,4.49,0,0,0,405.41,255.7Z" fill="#fff"/>
          </g>
          <g id="Group_186" data-name="Group 186">
            <path id="Path_115" data-name="Path 115" d="M406.079,255.776s-6.427,2.254-5.728,3.577c.578,1.1,6.022-1.9,6.022-1.9Z" fill="#fff"/>
          </g>
        </g>
        <g id="Group_194" data-name="Group 194">
          <g id="Group_189" data-name="Group 189">
            <g id="Group_188" data-name="Group 188">
              <path id="Path_116" data-name="Path 116" d="M392.678,235.008c-1.492-1.38-4.1-1.067-6.252.6a7.131,7.131,0,0,0-.621.531c-.146.133-.287.277-.425.428a7.563,7.563,0,0,0-1.99,3.953,3.8,3.8,0,0,0,1.028,3.448,3.452,3.452,0,0,0,2.395.866,5.8,5.8,0,0,0,2.509-.622,8.1,8.1,0,0,0,2.4-1.8c.077-.084.151-.169.225-.253a7.761,7.761,0,0,0,.5-.654C394.065,239.176,394.219,236.428,392.678,235.008Zm-1.528,6.877c-1.989,2.159-4.776,2.838-6.211,1.515a3.055,3.055,0,0,1-.787-2.773,6.786,6.786,0,0,1,1.792-3.54,8.174,8.174,0,0,1,.694-.667l.005,0,.008-.007a5.831,5.831,0,0,1,3.62-1.515,2.728,2.728,0,0,1,1.887.677C393.593,236.894,393.142,239.727,391.15,241.885Z" fill="#fff"/>
            </g>
          </g>
          <g id="Group_191" data-name="Group 191">
            <g id="Group_190" data-name="Group 190">
              <path id="Path_117" data-name="Path 117" d="M386.409,236.5a.385.385,0,0,1-.3-.146c-.074-.091-.477-.511-1.221-.048a.384.384,0,0,1-.406-.653,1.63,1.63,0,0,1,2.234.228.385.385,0,0,1-.07.54A.389.389,0,0,1,386.409,236.5Z" fill="#fff"/>
            </g>
          </g>
          <g id="Group_193" data-name="Group 193">
            <g id="Group_192" data-name="Group 192">
              <path id="Path_118" data-name="Path 118" d="M406.221,251.742c-.213.133-.426.277-.636.431a24.029,24.029,0,0,0-5.247-5.648,25.349,25.349,0,0,0-8.4-4.37c-.141-.039-.22-.057-.228-.059a.384.384,0,0,1,.172-.749c.013,0,.21.051.556.154a26.53,26.53,0,0,1,7.742,3.948A25.026,25.026,0,0,1,406.221,251.742Z" fill="#fff"/>
            </g>
          </g>
        </g>
      </g>
    </g>
    <g id="Group_253" data-name="Group 253">
      <g id="Group_222" data-name="Group 222">
        <g id="Group_197" data-name="Group 197">
          <path id="Path_119" data-name="Path 119" d="M464.728,441.821c0,1.722-10.474,3.119-23.394,3.119s-23.393-1.4-23.393-3.119,10.473-3.119,23.393-3.119S464.728,440.1,464.728,441.821Z" fill="#c8dff7"/>
        </g>
        <g id="Group_221" data-name="Group 221">
          <g id="Group_210" data-name="Group 210">
            <g id="Group_201" data-name="Group 201">
              <g id="Group_198" data-name="Group 198">
                <path id="Path_120" data-name="Path 120" d="M439.411,391.387h-6.675s-33.074-68.039-24.1-78.541C420.212,299.306,435.241,337.965,439.411,391.387Z" fill="#00c5bb"/>
              </g>
              <g id="Group_200" data-name="Group 200">
                <g id="Group_199" data-name="Group 199">
                  <path id="Path_121" data-name="Path 121" d="M437.31,391.387h-1.091L415.2,322.506a.521.521,0,1,1,1-.3Z" fill="#009c97"/>
                </g>
              </g>
            </g>
            <g id="Group_205" data-name="Group 205">
              <g id="Group_202" data-name="Group 202">
                <path id="Path_122" data-name="Path 122" d="M443.343,391.387h6.675s33.074-68.039,24.1-78.541C462.542,299.306,447.513,337.965,443.343,391.387Z" fill="#00c5bb"/>
              </g>
              <g id="Group_204" data-name="Group 204">
                <g id="Group_203" data-name="Group 203">
                  <path id="Path_123" data-name="Path 123" d="M445.444,391.387h1.091l21.023-68.881a.522.522,0,1,0-1-.3Z" fill="#009c97"/>
                </g>
              </g>
            </g>
            <g id="Group_209" data-name="Group 209">
              <g id="Group_206" data-name="Group 206">
                <path id="Path_124" data-name="Path 124" d="M445.318,391.387h-5.907c-13.057-62.555-7.84-114.948,5.386-105.118S445.318,391.387,445.318,391.387Z" fill="#00c5bb"/>
              </g>
              <g id="Group_208" data-name="Group 208">
                <g id="Group_207" data-name="Group 207">
                  <path id="Path_125" data-name="Path 125" d="M441.855,299l-.705,92.388h-1.043l.706-92.395a.528.528,0,0,1,.526-.518A.52.52,0,0,1,441.855,299Z" fill="#009c97"/>
                </g>
              </g>
            </g>
          </g>
          <g id="Group_220" data-name="Group 220">
            <g id="Group_211" data-name="Group 211">
              <path id="Path_126" data-name="Path 126" d="M467.11,391.386,466.136,395l-.188.7-.879,3.265-.188.7-8.742,32.409-.188.695-.881,3.265-.186.7L453.729,441a93.126,93.126,0,0,1-24.7,0l-1.156-4.281-.185-.7-.881-3.265-.188-.695-8.743-32.409-.187-.7-.879-3.265-.188-.7-.975-3.612Z" fill="#ff5177"/>
            </g>
            <g id="Group_213" data-name="Group 213">
              <g id="Group_212" data-name="Group 212">
                <path id="Path_127" data-name="Path 127" d="M466.136,395l-.188.7H416.806l-.188-.7Z" fill="#da234f"/>
              </g>
            </g>
            <g id="Group_215" data-name="Group 215">
              <g id="Group_214" data-name="Group 214">
                <path id="Path_128" data-name="Path 128" d="M465.069,398.958l-.188.7H417.872l-.188-.7Z" fill="#da234f"/>
              </g>
            </g>
            <g id="Group_217" data-name="Group 217">
              <g id="Group_216" data-name="Group 216">
                <path id="Path_129" data-name="Path 129" d="M456.139,432.062l-.188.7H426.8l-.188-.7Z" fill="#da234f"/>
              </g>
            </g>
            <g id="Group_219" data-name="Group 219">
              <g id="Group_218" data-name="Group 218">
                <path id="Path_130" data-name="Path 130" d="M455.07,436.022l-.186.695H427.869l-.186-.695Z" fill="#da234f"/>
              </g>
            </g>
          </g>
        </g>
      </g>
      <g id="Group_252" data-name="Group 252">
        <g id="Group_223" data-name="Group 223">
          <path id="Path_131" data-name="Path 131" d="M82.6,441.821c0,1.722-12.281,3.119-27.43,3.119s-27.43-1.4-27.43-3.119S40.02,438.7,55.169,438.7,82.6,440.1,82.6,441.821Z" fill="#c8dff7"/>
        </g>
        <g id="Group_251" data-name="Group 251">
          <g id="Group_250" data-name="Group 250">
            <g id="Group_234" data-name="Group 234">
              <g id="Group_225" data-name="Group 225">
                <g id="Group_224" data-name="Group 224">
                  <path id="Path_132" data-name="Path 132" d="M77.941,394.824a4.648,4.648,0,0,1-.075.636l-.561,3.694-.169,1.113-.085.553-.02.141-.5,3.266-.1.7-.01.064-.251,1.666L72.527,430.6l-.252,1.666-.071.472-.106.694-.456,3-.041.266-.1.7-.108.7-.243,1.6a2.5,2.5,0,0,1-2.469,2.12H41.659a2.5,2.5,0,0,1-2.466-2.12l-.243-1.6-.108-.7-.1-.7-.041-.266-.456-3-.105-.694-.072-.472-.252-1.666-3.64-23.949-.251-1.666-.01-.064-.1-.7-.5-3.266-.02-.141-.085-.553-.169-1.113-.561-3.694a4.648,4.648,0,0,1-.075-.636Z" fill="#ff5177"/>
                </g>
              </g>
              <g id="Group_227" data-name="Group 227">
                <g id="Group_226" data-name="Group 226">
                  <path id="Path_133" data-name="Path 133" d="M77.136,400.267l-.085.554-.021.141H33.307l-.02-.141-.085-.554Z" fill="#da234f"/>
                </g>
              </g>
              <g id="Group_229" data-name="Group 229">
                <g id="Group_228" data-name="Group 228">
                  <path id="Path_134" data-name="Path 134" d="M76.533,404.227l-.105.695H33.91l-.105-.695Z" fill="#da234f"/>
                </g>
              </g>
              <g id="Group_231" data-name="Group 231">
                <g id="Group_230" data-name="Group 230">
                  <path id="Path_135" data-name="Path 135" d="M72.2,432.739l-.105.695H38.24l-.105-.695Z" fill="#da234f"/>
                </g>
              </g>
              <g id="Group_233" data-name="Group 233">
                <g id="Group_232" data-name="Group 232">
                  <path id="Path_136" data-name="Path 136" d="M71.6,436.7l-.105.695H38.842l-.105-.695Z" fill="#da234f"/>
                </g>
              </g>
            </g>
            <g id="Group_235" data-name="Group 235">
              <path id="Path_137" data-name="Path 137" d="M88.744,338.942c-10.823-2.851-27.36,19.614-32.382,41.517V348.546c2.524-4.477,7.337-11.212,16.077-18.33,13.59-11.069,26.1-25.273,15.258-28.129-10.161-2.677-25.358,16.961-31.335,37.5V298.6a43.388,43.388,0,0,1,9.205-10.019c8.565-6.976,16.449-15.928,9.616-17.728-5.93-1.562-14.582,8.935-18.821,20.775V278.348a63.034,63.034,0,0,1,4.41-15.976c6.3-13.9,9.7-28.224,1.4-27.159s-13.7,25.825-9.158,44.832v6.835c-3.071-13.909-13.607-28.315-20.484-26.5-6.833,1.8,1.051,10.752,9.616,17.727,6.52,5.311,9.571,10.281,10.868,12.954v32.283c-4.926-22.012-21.58-44.733-32.461-41.867-10.842,2.856,1.668,17.061,15.258,28.13,10.27,8.364,15.12,16.2,17.2,20.465v38.713c-5.264-21.61-21.494-43.419-32.167-40.608C10,331.03,19.3,341.411,34.573,353.966A72.1,72.1,0,0,1,53.011,376.4v18.424h3.351v-7.446c2.124-4.3,6.979-12.044,17.124-20.307C87.076,356,99.587,341.8,88.744,338.942Z" fill="#00c5bb"/>
            </g>
            <g id="Group_237" data-name="Group 237">
              <g id="Group_236" data-name="Group 236">
                <path id="Path_138" data-name="Path 138" d="M51.966,324.788a.375.375,0,0,1-.351-.241,80.979,80.979,0,0,0-24.247-33.332.375.375,0,0,1,.445-.6,81.771,81.771,0,0,1,24.5,33.669.375.375,0,0,1-.217.484A.367.367,0,0,1,51.966,324.788Z" fill="#009c97"/>
              </g>
            </g>
            <g id="Group_239" data-name="Group 239">
              <g id="Group_238" data-name="Group 238">
                <path id="Path_139" data-name="Path 139" d="M54.5,270.413h-.028a.374.374,0,0,1-.346-.4c1.4-18.366,7.48-29.909,7.541-30.024a.375.375,0,0,1,.662.354c-.061.113-6.069,11.529-7.455,29.727A.374.374,0,0,1,54.5,270.413Z" fill="#009c97"/>
              </g>
            </g>
            <g id="Group_241" data-name="Group 241">
              <g id="Group_240" data-name="Group 240">
                <path id="Path_140" data-name="Path 140" d="M58.249,293.038a.373.373,0,0,1-.347-.516c3.775-9.23,14.068-17.92,14.172-18.007a.375.375,0,0,1,.481.576c-.1.085-10.255,8.659-13.959,17.714A.373.373,0,0,1,58.249,293.038Z" fill="#009c97"/>
              </g>
            </g>
            <g id="Group_243" data-name="Group 243">
              <g id="Group_242" data-name="Group 242">
                <path id="Path_141" data-name="Path 141" d="M58.249,342.39a.364.364,0,0,1-.116-.018.375.375,0,0,1-.241-.472c6.375-19.668,23.071-31.153,23.238-31.266a.375.375,0,0,1,.421.621c-.166.112-16.653,11.46-22.945,30.876A.375.375,0,0,1,58.249,342.39Z" fill="#009c97"/>
              </g>
            </g>
            <g id="Group_245" data-name="Group 245">
              <g id="Group_244" data-name="Group 244">
                <path id="Path_142" data-name="Path 142" d="M57.591,381.457a.379.379,0,0,1-.143-.028.375.375,0,0,1-.2-.489c7.819-19.048,25.4-34.222,25.578-34.373a.375.375,0,0,1,.488.57c-.176.15-17.624,15.211-25.372,34.088A.375.375,0,0,1,57.591,381.457Z" fill="#009c97"/>
              </g>
            </g>
            <g id="Group_247" data-name="Group 247">
              <g id="Group_246" data-name="Group 246">
                <path id="Path_143" data-name="Path 143" d="M51.966,370.163a.376.376,0,0,1-.35-.238,85.262,85.262,0,0,0-24.253-33.963.375.375,0,0,1,.455-.6,86.072,86.072,0,0,1,24.5,34.287.375.375,0,0,1-.213.486A.384.384,0,0,1,51.966,370.163Z" fill="#009c97"/>
              </g>
            </g>
            <g id="Group_249" data-name="Group 249">
              <g id="Group_248" data-name="Group 248">
                <path id="Path_144" data-name="Path 144" d="M50.966,284.828a.376.376,0,0,1-.351-.241c-4.278-11.207-14.252-17.733-14.352-17.8a.375.375,0,0,1,.406-.631c.1.066,10.279,6.718,14.647,18.161a.373.373,0,0,1-.35.508Z" fill="#009c97"/>
              </g>
            </g>
          </g>
        </g>
      </g>
    </g>
  </g>
</svg>
