<svg xmlns="http://www.w3.org/2000/svg" xmlns:xlink="http://www.w3.org/1999/xlink" width="411.476" height="370.944" viewBox="0 0 411.476 370.944">
  <defs>
    <linearGradient id="linear-gradient" y1="0.5" x2="1" y2="0.5" gradientUnits="objectBoundingBox">
      <stop offset="0" stop-color="#484ba3"/>
      <stop offset="1" stop-color="#6468cc"/>
    </linearGradient>
    <linearGradient id="linear-gradient-3" x1="0.5" y1="1" x2="0.5" y2="0" xlink:href="#linear-gradient"/>
  </defs>
  <g id="OBJECTS" transform="translate(-49.089 -47.15)">
    <g id="Group_28" data-name="Group 28">
      <g id="Group_26" data-name="Group 26">
        <g id="Group_4" data-name="Group 4">
          <g id="Group_1" data-name="Group 1">
            <path id="Path_1" data-name="Path 1" d="M82.5,400.775a1.352,1.352,0,0,1-1.35-1.35,1.229,1.229,0,0,1,.027-.261c.018-.089.045-.17.072-.261a1.808,1.808,0,0,1,.126-.225,1.3,1.3,0,0,1,.171-.206,1.372,1.372,0,0,1,.207-.172,1.514,1.514,0,0,1,.234-.125,1.9,1.9,0,0,1,.252-.072,1.275,1.275,0,0,1,.522,0,1.9,1.9,0,0,1,.252.072,2.085,2.085,0,0,1,.234.125,2.034,2.034,0,0,1,.207.172,1.3,1.3,0,0,1,.171.206,1.068,1.068,0,0,1,.117.225,1.5,1.5,0,0,1,.081.261,1.229,1.229,0,0,1,.026.261,1.348,1.348,0,0,1-.4.954A1.364,1.364,0,0,1,82.5,400.775Z" fill="#7048a3"/>
          </g>
          <g id="Group_2" data-name="Group 2">
            <path id="Path_2" data-name="Path 2" d="M379.443,397.95a1.344,1.344,0,0,1,.495-1.845h0a1.353,1.353,0,0,1,1.844.5h0a1.344,1.344,0,0,1-.5,1.836h0a1.291,1.291,0,0,1-.666.18h0A1.342,1.342,0,0,1,379.443,397.95ZM76.97,394.468h0a1.356,1.356,0,0,1,.351-1.881h0a1.358,1.358,0,0,1,1.881.36h0a1.354,1.354,0,0,1-.36,1.871h0a1.307,1.307,0,0,1-.756.235h0A1.358,1.358,0,0,1,76.97,394.468Zm308.672-.217a1.343,1.343,0,0,1,.4-1.862h0a1.344,1.344,0,0,1,1.862.4h0a1.345,1.345,0,0,1-.4,1.863h0a1.349,1.349,0,0,1-.729.216h0A1.342,1.342,0,0,1,385.642,394.251Zm6-4.013a1.351,1.351,0,0,1,.3-1.889h0a1.353,1.353,0,0,1,1.889.306h0a1.349,1.349,0,0,1-.306,1.88h0a1.334,1.334,0,0,1-.791.261h0A1.349,1.349,0,0,1,391.644,390.238Zm-318.471-2.1a1.349,1.349,0,0,1,.567-1.817h0a1.344,1.344,0,0,1,1.827.566h0A1.351,1.351,0,0,1,75,388.709h0a1.3,1.3,0,0,1-.63.153h0A1.351,1.351,0,0,1,73.173,388.142Zm324.247-2.231a1.348,1.348,0,0,1,.208-1.9h0a1.347,1.347,0,0,1,1.9.207h0a1.337,1.337,0,0,1-.207,1.89h0a1.323,1.323,0,0,1-.846.3h0A1.379,1.379,0,0,1,397.42,385.911ZM70.114,381.448h0a1.356,1.356,0,0,1,.765-1.755h0a1.348,1.348,0,0,1,1.745.765h0a1.342,1.342,0,0,1-.764,1.746h0a1.344,1.344,0,0,1-.486.1h0A1.351,1.351,0,0,1,70.114,381.448Zm332.858-.163a1.34,1.34,0,0,1,.108-1.9h0a1.344,1.344,0,0,1,1.908.108h0a1.341,1.341,0,0,1-.108,1.9h0a1.322,1.322,0,0,1-.9.342h0A1.326,1.326,0,0,1,402.972,381.285Zm5.309-4.894a1.35,1.35,0,0,1,.009-1.908h0a1.35,1.35,0,0,1,1.908.009h0a1.363,1.363,0,0,1-.009,1.917h0V376.4h0a1.343,1.343,0,0,1-.955.4h0A1.329,1.329,0,0,1,408.281,376.391ZM67.792,374.456a1.344,1.344,0,0,1,.945-1.655h0a1.355,1.355,0,0,1,1.665.944h0a1.359,1.359,0,0,1-.945,1.656h0a1.294,1.294,0,0,1-.36.054h0A1.361,1.361,0,0,1,67.792,374.456Zm345.546-3.221a1.343,1.343,0,0,1-.09-1.908h0a1.352,1.352,0,0,1,1.907-.081h0a1.352,1.352,0,0,1,.091,1.908h0a1.359,1.359,0,0,1-1,.432h0A1.338,1.338,0,0,1,413.338,371.235Zm-347.12-3.967h.009a1.341,1.341,0,0,1,1.107-1.549h0a1.354,1.354,0,0,1,1.556,1.107h0a1.361,1.361,0,0,1-1.116,1.557h0a1.752,1.752,0,0,1-.224.018h0A1.358,1.358,0,0,1,66.218,367.268Zm351.906-1.432a1.356,1.356,0,0,1-.179-1.908h0a1.352,1.352,0,0,1,1.9-.17h0a1.344,1.344,0,0,1,.18,1.9h0a1.323,1.323,0,0,1-1.035.486h0A1.355,1.355,0,0,1,418.124,365.836ZM65.408,359.951a1.348,1.348,0,0,1,1.269-1.421h0A1.347,1.347,0,0,1,68.1,359.8h0a1.344,1.344,0,0,1-1.259,1.421h-.081A1.35,1.35,0,0,1,65.408,359.951Zm357.234.253a1.351,1.351,0,0,1-.27-1.89h0a1.353,1.353,0,0,1,1.889-.279h0a1.35,1.35,0,0,1,.27,1.89h0a1.327,1.327,0,0,1-1.08.548h0A1.361,1.361,0,0,1,422.642,360.2Zm4.238-5.849a1.35,1.35,0,0,1-.369-1.872h0a1.36,1.36,0,0,1,1.88-.369h0a1.354,1.354,0,0,1,.36,1.872h0a1.34,1.34,0,0,1-1.116.594h0A1.367,1.367,0,0,1,426.88,354.355ZM66.641,354a1.347,1.347,0,0,1-1.287-1.4h0a1.346,1.346,0,0,1,1.4-1.286h0a1.335,1.335,0,0,1,1.286,1.4h0A1.339,1.339,0,0,1,66.7,354h-.063Zm364.18-5.7a1.348,1.348,0,0,1-.459-1.854h0a1.356,1.356,0,0,1,1.853-.459h0a1.348,1.348,0,0,1,.459,1.853h0a1.347,1.347,0,0,1-1.16.658h0A1.316,1.316,0,0,1,430.821,348.3ZM67.208,346.806a1.353,1.353,0,0,1-1.134-1.539h0a1.343,1.343,0,0,1,1.538-1.124h0a1.352,1.352,0,0,1,1.134,1.538h0a1.359,1.359,0,0,1-1.331,1.143h0A.764.764,0,0,1,67.208,346.806Zm367.248-4.742a1.348,1.348,0,0,1-.549-1.826h0a1.35,1.35,0,0,1,1.835-.549h0a1.345,1.345,0,0,1,.541,1.826h.008a1.369,1.369,0,0,1-1.2.711h0A1.372,1.372,0,0,1,434.456,342.064ZM68.539,339.716a1.347,1.347,0,0,1-.945-1.656h-.008a1.357,1.357,0,0,1,1.655-.954h0a1.351,1.351,0,0,1,.954,1.656h0a1.347,1.347,0,0,1-1.305,1h0A1.7,1.7,0,0,1,68.539,339.716Zm369.237-4.059a1.363,1.363,0,0,1-.638-1.8h0a1.357,1.357,0,0,1,1.8-.648h0a1.351,1.351,0,0,1,.639,1.8h0v.008h0a1.333,1.333,0,0,1-1.215.766h0A1.471,1.471,0,0,1,437.776,335.657ZM70.663,332.815a1.348,1.348,0,0,1-.756-1.755h0a1.353,1.353,0,0,1,1.754-.756h0a1.358,1.358,0,0,1,.757,1.754h0a1.361,1.361,0,0,1-1.26.855h0A1.406,1.406,0,0,1,70.663,332.815Zm370.119-3.735a1.343,1.343,0,0,1-.73-1.763h0a1.357,1.357,0,0,1,1.764-.73h0a1.362,1.362,0,0,1,.729,1.765h0a1.355,1.355,0,0,1-1.251.836h0A1.272,1.272,0,0,1,440.782,329.08ZM73.569,326.209a1.357,1.357,0,0,1-.54-1.835h0a1.338,1.338,0,0,1,1.827-.54h0a1.349,1.349,0,0,1,.549,1.827h0a1.36,1.36,0,0,1-1.2.711h0A1.376,1.376,0,0,1,73.569,326.209Zm369.867-3.841a1.351,1.351,0,0,1-.819-1.719h0a1.354,1.354,0,0,1,1.728-.819h0a1.342,1.342,0,0,1,.819,1.719h0a1.351,1.351,0,0,1-1.269.9h0A1.4,1.4,0,0,1,443.436,322.368Zm-366.241-2.4a1.356,1.356,0,0,1-.369-1.871h0a1.339,1.339,0,0,1,1.872-.369h0a1.349,1.349,0,0,1,.378,1.871h0a1.369,1.369,0,0,1-1.125.594h0A1.372,1.372,0,0,1,77.195,319.965Zm368.553-4.435a1.349,1.349,0,0,1-.9-1.683h0a1.339,1.339,0,0,1,1.674-.9h0a1.336,1.336,0,0,1,.909,1.673h0a1.347,1.347,0,0,1-1.3.963h0A1.526,1.526,0,0,1,445.748,315.53Zm-364.4-1.468a1.355,1.355,0,0,1-.234-1.9h0a1.346,1.346,0,0,1,1.89-.233h0a1.339,1.339,0,0,1,.243,1.889h0a1.344,1.344,0,0,1-1.071.53h0A1.381,1.381,0,0,1,81.352,314.062Zm4.526-5.632a1.342,1.342,0,0,1-.153-1.9h0a1.342,1.342,0,0,1,1.9-.154h0a1.344,1.344,0,0,1,.153,1.9h0a1.353,1.353,0,0,1-1.026.477h0A1.33,1.33,0,0,1,85.878,308.43Zm361.822.153a1.355,1.355,0,0,1-.989-1.637h0a1.345,1.345,0,0,1,1.628-.991h0a1.351,1.351,0,0,1,1,1.629h0a1.36,1.36,0,0,1-1.313,1.035h0A2,2,0,0,1,447.7,308.583ZM90.6,302.977a1.359,1.359,0,0,1-.108-1.907h0a1.352,1.352,0,0,1,1.908-.108h0a1.342,1.342,0,0,1,.108,1.9h0a1.328,1.328,0,0,1-1.008.458h0A1.389,1.389,0,0,1,90.6,302.977Zm358.691-1.44a1.358,1.358,0,0,1-1.088-1.574h0a1.345,1.345,0,0,1,1.574-1.079h0a1.337,1.337,0,0,1,1.08,1.574h0v-.009h0a1.34,1.34,0,0,1-1.323,1.107h0A1.986,1.986,0,0,1,449.293,301.537ZM95.416,297.588a1.352,1.352,0,0,1-.117-1.908h0a1.351,1.351,0,0,1,1.907-.117h0a1.352,1.352,0,0,1,.117,1.908h-.008a1.316,1.316,0,0,1-1.008.458h0A1.352,1.352,0,0,1,95.416,297.588Zm355.074-3.177a1.341,1.341,0,0,1-1.16-1.511h0a1.341,1.341,0,0,1,1.511-1.161h0A1.342,1.342,0,0,1,452,293.25h0a1.347,1.347,0,0,1-1.332,1.17h0A1.206,1.206,0,0,1,450.49,294.411Zm-350.314-2.258a1.345,1.345,0,0,1-.171-1.9h0a1.345,1.345,0,0,1,1.907-.162h0a1.351,1.351,0,0,1,.162,1.9h0a1.353,1.353,0,0,1-1.034.476h0A1.313,1.313,0,0,1,100.176,292.153ZM451.3,287.24a1.339,1.339,0,0,1-1.242-1.449h0a1.343,1.343,0,0,1,1.44-1.242h0A1.354,1.354,0,0,1,452.749,286h0a1.352,1.352,0,0,1-1.341,1.242H451.3Zm-346.562-.684a1.347,1.347,0,0,1-.261-1.89h0a1.346,1.346,0,0,1,1.889-.261h0a1.347,1.347,0,0,1,.261,1.89h0a1.343,1.343,0,0,1-1.08.54h0A1.319,1.319,0,0,1,104.738,286.556Zm4.211-5.867a1.348,1.348,0,0,1-.4-1.862h0a1.342,1.342,0,0,1,1.862-.4h0a1.34,1.34,0,0,1,.4,1.862h0a1.331,1.331,0,0,1-1.134.621h0A1.348,1.348,0,0,1,108.949,280.689Zm342.774-.656a1.357,1.357,0,0,1-1.323-1.386h0a1.345,1.345,0,0,1,1.377-1.313h0a1.346,1.346,0,0,1,1.322,1.376h0a1.353,1.353,0,0,1-1.35,1.323h-.026Zm-339.04-5.525a1.347,1.347,0,0,1-.585-1.818h0a1.367,1.367,0,0,1,1.827-.585h0a1.366,1.366,0,0,1,.576,1.827h0a1.36,1.36,0,0,1-1.2.729h0A1.269,1.269,0,0,1,112.683,274.508ZM450.364,271.5h0a1.361,1.361,0,0,1,1.3-1.394h0a1.361,1.361,0,0,1,1.394,1.314h0a1.339,1.339,0,0,1-1.3,1.385h-.046A1.35,1.35,0,0,1,450.364,271.5Zm-334.586-3.518a1.349,1.349,0,0,1-.792-1.736h0a1.359,1.359,0,0,1,1.746-.792h0a1.362,1.362,0,0,1,.783,1.745h0a1.358,1.358,0,0,1-1.269.874h0A1.237,1.237,0,0,1,115.778,267.984Zm334.182-3.625a1.341,1.341,0,0,1,1.231-1.449h0a1.349,1.349,0,0,1,1.458,1.233h0a1.354,1.354,0,0,1-1.233,1.457H451.3A1.342,1.342,0,0,1,449.96,264.359Zm-331.932-3.231a1.349,1.349,0,0,1-1.026-1.61h0a1.336,1.336,0,0,1,1.6-1.026h0a1.347,1.347,0,0,1,1.034,1.6h0a1.353,1.353,0,0,1-1.323,1.062h0A1.623,1.623,0,0,1,118.028,261.128Zm331.157-3.878a1.341,1.341,0,0,1,1.152-1.512h0a1.35,1.35,0,0,1,1.521,1.152h0a1.357,1.357,0,0,1-1.161,1.521h0a1.147,1.147,0,0,1-.18.009h0A1.34,1.34,0,0,1,449.185,257.25ZM119.2,254.011a1.361,1.361,0,0,1-1.3-1.4h0a1.363,1.363,0,0,1,1.4-1.3h0a1.344,1.344,0,0,1,1.3,1.4h0a1.349,1.349,0,0,1-1.35,1.3H119.2ZM448.052,250.2a1.339,1.339,0,0,1,1.07-1.575h0a1.339,1.339,0,0,1,1.575,1.071h0a1.35,1.35,0,0,1-1.08,1.583h0a1.985,1.985,0,0,1-.243.018h0A1.34,1.34,0,0,1,448.052,250.2ZM117.524,245.67a1.346,1.346,0,0,1,1.124-1.539h0a1.353,1.353,0,0,1,1.548,1.125h-.009a1.338,1.338,0,0,1-1.125,1.538h0a1.447,1.447,0,0,1-.207.018h0A1.344,1.344,0,0,1,117.524,245.67ZM446.558,243.2a1.351,1.351,0,0,1,1-1.628h0a1.354,1.354,0,0,1,1.629,1h0a1.354,1.354,0,0,1-1,1.628h0a1.3,1.3,0,0,1-.314.036h0A1.353,1.353,0,0,1,446.558,243.2ZM115.85,238.9a1.343,1.343,0,0,1,.837-1.709h0a1.355,1.355,0,0,1,1.718.837h0a1.36,1.36,0,0,1-.845,1.718h0a1.448,1.448,0,0,1-.432.072h0A1.351,1.351,0,0,1,115.85,238.9Zm328.872-2.618h0a1.353,1.353,0,0,1,.918-1.674h0a1.341,1.341,0,0,1,1.674.909h0v.009h0a1.354,1.354,0,0,1-.918,1.674h0a1.37,1.37,0,0,1-.378.054h0A1.355,1.355,0,0,1,444.722,236.285Zm-331.643-3.833a1.349,1.349,0,0,1,.585-1.818h0a1.358,1.358,0,0,1,1.817.594h0a1.337,1.337,0,0,1-.585,1.809h0a1.26,1.26,0,0,1-.612.153h0A1.354,1.354,0,0,1,113.079,232.452Zm329.466-2.987a1.357,1.357,0,0,1,.837-1.719h0a1.356,1.356,0,0,1,1.718.837h0a1.357,1.357,0,0,1-.836,1.719h0a1.539,1.539,0,0,1-.441.071h0A1.359,1.359,0,0,1,442.545,229.465Zm-333.038-3.123a1.349,1.349,0,0,1,.395-1.862h0a1.343,1.343,0,0,1,1.872.4h0a1.349,1.349,0,0,1-.4,1.862h0a1.3,1.3,0,0,1-.738.216h0A1.353,1.353,0,0,1,109.507,226.342Zm330.536-3.581a1.349,1.349,0,0,1,.747-1.754h0a1.353,1.353,0,0,1,1.755.747h0a1.355,1.355,0,0,1-.747,1.763h0a1.391,1.391,0,0,1-.5.1h0A1.34,1.34,0,0,1,440.043,222.761Zm-334.622-2.267a1.339,1.339,0,0,1,.271-1.881h0a1.341,1.341,0,0,1,1.889.279h0a1.332,1.332,0,0,1-.279,1.881h0a1.322,1.322,0,0,1-.8.27h0A1.327,1.327,0,0,1,105.421,220.494ZM437.209,216.2a1.344,1.344,0,0,1,.657-1.791h0a1.349,1.349,0,0,1,1.791.657h0a1.349,1.349,0,0,1-.657,1.79h0a1.421,1.421,0,0,1-.567.127h0A1.352,1.352,0,0,1,437.209,216.2ZM101.03,214.816v-.009h0a1.347,1.347,0,0,1,.226-1.89h0a1.335,1.335,0,0,1,1.889.217h0a1.346,1.346,0,0,1-.216,1.9h0a1.349,1.349,0,0,1-.837.288h0A1.353,1.353,0,0,1,101.03,214.816Zm333.021-5.039a1.342,1.342,0,0,1,.566-1.817h0a1.342,1.342,0,0,1,1.818.567h0a1.355,1.355,0,0,1-.566,1.826h0a1.409,1.409,0,0,1-.622.153h0A1.348,1.348,0,0,1,434.051,209.777Zm-337.51-.63h0a1.344,1.344,0,0,1,.225-1.889h0a1.344,1.344,0,0,1,1.889.225h0a1.335,1.335,0,0,1-.216,1.889h0a1.36,1.36,0,0,1-.837.3h0A1.353,1.353,0,0,1,96.541,209.147Zm334.037-5.623a1.342,1.342,0,0,1,.476-1.845h0a1.342,1.342,0,0,1,1.845.477h0a1.341,1.341,0,0,1-.477,1.844h0a1.341,1.341,0,0,1-.683.19h0A1.337,1.337,0,0,1,430.578,203.524ZM92.123,203.38a1.352,1.352,0,0,1,.287-1.89h0a1.351,1.351,0,0,1,1.89.288h0a1.351,1.351,0,0,1-.288,1.89h0a1.331,1.331,0,0,1-.8.261h0A1.343,1.343,0,0,1,92.123,203.38ZM426.8,197.45a1.335,1.335,0,0,1,.378-1.862h0a1.347,1.347,0,0,1,1.871.378h0a1.34,1.34,0,0,1-.387,1.871h0a1.314,1.314,0,0,1-.737.225h0A1.327,1.327,0,0,1,426.8,197.45Zm-338.824-.09a1.342,1.342,0,0,1,.414-1.862h0a1.342,1.342,0,0,1,1.862.414h0a1.344,1.344,0,0,1-.414,1.862h0a1.328,1.328,0,0,1-.719.207h0A1.348,1.348,0,0,1,87.975,197.36Zm334.739-5.776a1.351,1.351,0,0,1,.287-1.89h0a1.35,1.35,0,0,1,1.881.288h0a1.35,1.35,0,0,1-.288,1.889h0a1.306,1.306,0,0,1-.792.261h0A1.332,1.332,0,0,1,422.714,191.584Zm-338.4-.576a1.358,1.358,0,0,1,.576-1.827h0a1.354,1.354,0,0,1,1.818.576h0a1.354,1.354,0,0,1-.576,1.818h0a1.305,1.305,0,0,1-.621.153h0A1.342,1.342,0,0,1,84.312,191.008Zm334.02-5.075a1.345,1.345,0,0,1,.189-1.9h0a1.345,1.345,0,0,1,1.9.189h0a1.346,1.346,0,0,1-.188,1.9h0a1.349,1.349,0,0,1-.855.306h0A1.359,1.359,0,0,1,418.332,185.933ZM81.2,184.367a1.352,1.352,0,0,1,.729-1.772h0a1.346,1.346,0,0,1,1.764.728h0a1.346,1.346,0,0,1-.729,1.764h0a1.281,1.281,0,0,1-.513.108h0A1.36,1.36,0,0,1,81.2,184.367Zm332.462-3.851h0a1.351,1.351,0,0,1,.091-1.907h0a1.352,1.352,0,0,1,1.908.09h0a1.351,1.351,0,0,1-.091,1.907h0a1.356,1.356,0,0,1-.909.351h0A1.335,1.335,0,0,1,413.661,180.516Zm-335-3.032a1.345,1.345,0,0,1,.864-1.7h0a1.352,1.352,0,0,1,1.7.873h0a1.355,1.355,0,0,1-.873,1.7h0a1.289,1.289,0,0,1-.413.064h0A1.336,1.336,0,0,1,78.662,177.484Zm330.051-2.123a1.35,1.35,0,0,1-.009-1.908h0a1.349,1.349,0,0,1,1.907-.018h0a1.342,1.342,0,0,1,.009,1.908h0a1.331,1.331,0,0,1-.953.4h0A1.33,1.33,0,0,1,408.713,175.361Zm-332.022-4.94A1.349,1.349,0,0,1,77.7,168.8h0a1.345,1.345,0,0,1,1.62,1.007h0a1.348,1.348,0,0,1-1.008,1.62h0a1.185,1.185,0,0,1-.306.036h0A1.343,1.343,0,0,1,76.691,170.421Zm326.8.054a1.352,1.352,0,0,1-.117-1.908h0a1.352,1.352,0,0,1,1.908-.117h0a1.353,1.353,0,0,1,.117,1.908h0a1.341,1.341,0,0,1-1.008.458h0A1.375,1.375,0,0,1,403.494,170.475Zm-5.452-4.68a1.343,1.343,0,0,1-.172-1.9h0a1.344,1.344,0,0,1,1.9-.162h0a1.344,1.344,0,0,1,.171,1.9h0a1.364,1.364,0,0,1-1.035.486h0A1.317,1.317,0,0,1,398.042,165.795ZM75.315,163.222a1.336,1.336,0,0,1,1.134-1.529h0a1.357,1.357,0,0,1,1.538,1.133h0a1.35,1.35,0,0,1-1.143,1.53h0a.735.735,0,0,1-.2.018h0A1.344,1.344,0,0,1,75.315,163.222Zm317.193-2.087H392.5a1.354,1.354,0,0,1-.144-1.908h0a1.352,1.352,0,0,1,1.907-.144h0a1.354,1.354,0,0,1,.144,1.908h0a1.37,1.37,0,0,1-1.026.468h0A1.329,1.329,0,0,1,392.508,161.135Zm-317.976-5.2h0a1.337,1.337,0,0,1,1.26-1.431h0a1.342,1.342,0,0,1,1.43,1.26h0a1.349,1.349,0,0,1-1.259,1.431h-.09A1.347,1.347,0,0,1,74.532,155.934Zm312.532.351a1.351,1.351,0,0,1-.054-1.908h0a1.357,1.357,0,0,1,1.907-.063h0a1.361,1.361,0,0,1,.055,1.917h0a1.345,1.345,0,0,1-.981.423h0A1.362,1.362,0,0,1,387.064,156.285Zm-5.138-5.228a1.35,1.35,0,0,1,.1-1.908h0a1.351,1.351,0,0,1,1.906.108h0a1.352,1.352,0,0,1-.1,1.908h0a1.389,1.389,0,0,1-.9.342h0A1.333,1.333,0,0,1,381.926,151.057ZM75.684,149.978a1.355,1.355,0,0,1-1.332-1.368h0a1.362,1.362,0,0,1,1.376-1.332h0a1.348,1.348,0,0,1,1.323,1.377h0a1.343,1.343,0,0,1-1.349,1.323h-.018Zm301.663-4.724h0a1.339,1.339,0,0,1,.359-1.872h0a1.347,1.347,0,0,1,1.872.351h0a1.359,1.359,0,0,1-.36,1.881h0a1.367,1.367,0,0,1-.756.233h0A1.34,1.34,0,0,1,377.347,145.254ZM76.007,142.77a1.352,1.352,0,0,1-1.205-1.485h0a1.359,1.359,0,0,1,1.484-1.205h0a1.35,1.35,0,0,1,1.2,1.484h0a1.354,1.354,0,0,1-1.341,1.215h0C76.1,142.779,76.053,142.77,76.007,142.77Zm297.7-4.022h0a1.356,1.356,0,0,1,.693-1.782h0a1.354,1.354,0,0,1,1.782.693h0a1.353,1.353,0,0,1-.694,1.782h0a1.3,1.3,0,0,1-.539.117h0A1.363,1.363,0,0,1,373.711,138.748Zm-296.759-3.14a1.346,1.346,0,0,1-1.052-1.593h0a1.353,1.353,0,0,1,1.592-1.053h0a1.358,1.358,0,0,1,1.053,1.593h0a1.355,1.355,0,0,1-1.323,1.08h0A1.373,1.373,0,0,1,76.952,135.608Zm110.089-3.86a1.35,1.35,0,0,1,1.287-1.413h0a1.342,1.342,0,0,1,1.4,1.287h0a1.351,1.351,0,0,1-1.287,1.413h-.054A1.348,1.348,0,0,1,187.041,131.748Zm184.4-.144h0a1.364,1.364,0,0,1,1.063-1.593h0a1.364,1.364,0,0,1,1.592,1.062h0a1.351,1.351,0,0,1-1.062,1.584h0a1.369,1.369,0,0,1-.269.026h0A1.357,1.357,0,0,1,371.443,131.6Zm-190.458,1.017a1.354,1.354,0,0,1-1.124-1.548h0a1.346,1.346,0,0,1,1.539-1.125h0a1.353,1.353,0,0,1,1.125,1.539h0a1.351,1.351,0,0,1-1.333,1.142h0A1.809,1.809,0,0,1,180.985,132.621Zm13.219-1.683a1.341,1.341,0,0,1,.971-1.638h0a1.348,1.348,0,0,1,1.647.972h0a1.349,1.349,0,0,1-.972,1.638h0a1.487,1.487,0,0,1-.342.045h0A1.35,1.35,0,0,1,194.2,130.938Zm-20.444-.081a1.349,1.349,0,0,1-.855-1.7h0a1.34,1.34,0,0,1,1.7-.863h0a1.354,1.354,0,0,1,.864,1.7h0a1.355,1.355,0,0,1-1.286.936h0A1.44,1.44,0,0,1,173.76,130.857Zm27.318-2.114a1.339,1.339,0,0,1,.666-1.791h0a1.331,1.331,0,0,1,1.781.666h0a1.344,1.344,0,0,1-.666,1.79h0a1.343,1.343,0,0,1-.557.117h0A1.338,1.338,0,0,1,201.078,128.743ZM78.644,128.59a1.349,1.349,0,0,1-.864-1.7h0a1.354,1.354,0,0,1,1.71-.864h0a1.349,1.349,0,0,1,.855,1.7h0a1.337,1.337,0,0,1-1.278.935h0A1.421,1.421,0,0,1,78.644,128.59Zm88.269-.478a1.357,1.357,0,0,1-.648-1.8h0a1.345,1.345,0,0,1,1.791-.648h0a1.347,1.347,0,0,1,.647,1.8h0a1.341,1.341,0,0,1-1.223.774h0A1.4,1.4,0,0,1,166.913,128.112Zm40.571-2.69a1.35,1.35,0,0,1,.4-1.863h0a1.361,1.361,0,0,1,1.872.4h0a1.353,1.353,0,0,1-.4,1.872h0a1.349,1.349,0,0,1-.729.216h0A1.344,1.344,0,0,1,207.484,125.422Zm163.249-1.25a1.342,1.342,0,0,1,1.34-1.359h0a1.348,1.348,0,0,1,1.359,1.34h0a1.362,1.362,0,0,1-1.35,1.359h0A1.352,1.352,0,0,1,370.733,124.172Zm-210.316.53a1.342,1.342,0,0,1-.5-1.844h0a1.334,1.334,0,0,1,1.835-.5h0a1.354,1.354,0,0,1,.5,1.845h0a1.353,1.353,0,0,1-1.17.674h0A1.4,1.4,0,0,1,160.417,124.7Zm-79.254-2.879a1.35,1.35,0,0,1-.639-1.8h0a1.347,1.347,0,0,1,1.8-.639h0a1.354,1.354,0,0,1,.639,1.8h0a1.355,1.355,0,0,1-1.224.765h0A1.28,1.28,0,0,1,81.163,121.823Zm132.224-.549a1.355,1.355,0,0,1,.18-1.907h0a1.353,1.353,0,0,1,1.9.179h0a1.353,1.353,0,0,1-.171,1.9h0a1.351,1.351,0,0,1-.864.315h0A1.382,1.382,0,0,1,213.387,121.274ZM154.2,120.9h0a1.35,1.35,0,0,1-.414-1.862h0a1.353,1.353,0,0,1,1.872-.4h0a1.352,1.352,0,0,1,.4,1.863h0a1.345,1.345,0,0,1-1.134.62h0A1.277,1.277,0,0,1,154.2,120.9Zm218.171-2.6a1.35,1.35,0,0,1-1.178-1.494h0a1.346,1.346,0,0,1,1.5-1.178h0a1.339,1.339,0,0,1,1.178,1.493h0a1.349,1.349,0,0,1-1.331,1.2h0A1.1,1.1,0,0,1,372.37,118.3ZM148.143,116.91h0a1.347,1.347,0,0,1-.368-1.871h0a1.346,1.346,0,0,1,1.871-.369h0a1.347,1.347,0,0,1,.369,1.871h0a1.354,1.354,0,0,1-1.125.6h0A1.306,1.306,0,0,1,148.143,116.91ZM218.8,116.5a1.36,1.36,0,0,1-.009-1.916h0a1.349,1.349,0,0,1,1.907,0h0a1.349,1.349,0,0,1,.009,1.907h0a1.363,1.363,0,0,1-.963.4h0A1.327,1.327,0,0,1,218.8,116.5ZM84.573,115.453a1.346,1.346,0,0,1-.35-1.872h0a1.346,1.346,0,0,1,1.88-.351h0a1.354,1.354,0,0,1,.342,1.881h0a1.355,1.355,0,0,1-1.116.585h0A1.336,1.336,0,0,1,84.573,115.453Zm57.569-2.5a1.352,1.352,0,0,1-.414-1.862h0a1.355,1.355,0,0,1,1.872-.414h0a1.349,1.349,0,0,1,.4,1.862h0a1.334,1.334,0,0,1-1.134.621h0A1.339,1.339,0,0,1,142.142,112.951Zm81.629-1.7a1.343,1.343,0,0,1-.135-1.9h0v-.009h0a1.351,1.351,0,0,1,1.907-.126h0a1.352,1.352,0,0,1,.126,1.908l.009-.01a1.368,1.368,0,0,1-1.026.468h0A1.311,1.311,0,0,1,223.771,111.251Zm149.635-.1a1.351,1.351,0,0,1-1.089-1.565h0a1.345,1.345,0,0,1,1.565-1.089h0a1.337,1.337,0,0,1,1.089,1.566h0a1.347,1.347,0,0,1-1.323,1.106h0A1.092,1.092,0,0,1,373.406,111.151Zm-284.424-1.4A1.352,1.352,0,0,1,89,107.84h0a1.352,1.352,0,0,1,1.908.009h0a1.358,1.358,0,0,1-.009,1.908h0a1.364,1.364,0,0,1-.954.387h0A1.355,1.355,0,0,1,88.982,109.748Zm47.032-.459h0a1.355,1.355,0,0,1-.521-1.836h0a1.347,1.347,0,0,1,1.835-.53h0v.008h0a1.345,1.345,0,0,1,.522,1.827h0a1.334,1.334,0,0,1-1.179.7h0A1.429,1.429,0,0,1,136.014,109.289Zm-6.343-3.2A1.344,1.344,0,0,1,129,104.3h0a1.347,1.347,0,0,1,1.782-.683h0a1.349,1.349,0,0,1,.674,1.79h0a1.357,1.357,0,0,1-1.232.792h0A1.34,1.34,0,0,1,129.671,106.086Zm98.76-.342a1.368,1.368,0,0,1-.207-1.908h0a1.354,1.354,0,0,1,1.9-.2h0a1.345,1.345,0,0,1,.207,1.9h0a1.347,1.347,0,0,1-1.053.5h0A1.366,1.366,0,0,1,228.431,105.744Zm-133.969-.693a1.346,1.346,0,0,1,.45-1.854h0a1.354,1.354,0,0,1,1.854.45h0a1.347,1.347,0,0,1-.45,1.854h0a1.363,1.363,0,0,1-.7.2h0A1.326,1.326,0,0,1,94.462,105.051Zm280.257-1a1.359,1.359,0,0,1-1.1-1.565h0a1.36,1.36,0,0,1,1.566-1.1h0a1.353,1.353,0,0,1,1.1,1.565h0a1.349,1.349,0,0,1-1.331,1.116h0A2.049,2.049,0,0,1,374.719,104.052Zm-251.635-.513a1.361,1.361,0,0,1-.881-1.7h0a1.352,1.352,0,0,1,1.7-.873h0a1.343,1.343,0,0,1,.873,1.691h0a1.347,1.347,0,0,1-1.287.945h0A1.268,1.268,0,0,1,123.084,103.539ZM100.9,101.8a1.338,1.338,0,0,1,.9-1.683h0a1.352,1.352,0,0,1,1.683.9h0a1.347,1.347,0,0,1-.909,1.683h0a1.158,1.158,0,0,1-.387.063h0A1.342,1.342,0,0,1,100.9,101.8Zm15.377.108a1.358,1.358,0,0,1-1.134-1.539h0a1.344,1.344,0,0,1,1.539-1.125h0v-.009h0a1.365,1.365,0,0,1,1.133,1.548h0a1.35,1.35,0,0,1-1.331,1.143h0A1.607,1.607,0,0,1,116.273,101.911Zm-8.341-1.656a1.341,1.341,0,0,1,1.277-1.412h0a1.348,1.348,0,0,1,1.422,1.277h0a1.353,1.353,0,0,1-1.277,1.413h-.072A1.352,1.352,0,0,1,107.932,100.255Zm125-.162a1.348,1.348,0,0,1-.216-1.9h0a1.346,1.346,0,0,1,1.89-.225h0a1.356,1.356,0,0,1,.225,1.9h0a1.346,1.346,0,0,1-1.062.513h0A1.349,1.349,0,0,1,232.93,100.093Zm142.95-3.176a1.348,1.348,0,0,1-1.188-1.494h0a1.358,1.358,0,0,1,1.494-1.187h0a1.348,1.348,0,0,1,1.187,1.5h0a1.335,1.335,0,0,1-1.331,1.188h0A.972.972,0,0,1,375.88,96.917ZM237.429,94.442a1.347,1.347,0,0,1-.189-1.9h0a1.337,1.337,0,0,1,1.9-.189h0a1.353,1.353,0,0,1,.189,1.9h0a1.364,1.364,0,0,1-1.044.494h0A1.376,1.376,0,0,1,237.429,94.442ZM375.087,88.4a1.35,1.35,0,0,1,1.332-1.368h0a1.348,1.348,0,0,1,1.368,1.332h0a1.347,1.347,0,0,1-1.331,1.367h-.019A1.351,1.351,0,0,1,375.087,88.4Zm-133.015.513a1.344,1.344,0,0,1-.1-1.908h0a1.341,1.341,0,0,1,1.9-.1h0a1.352,1.352,0,0,1,.108,1.908h0a1.352,1.352,0,0,1-1.008.441h0A1.31,1.31,0,0,1,242.072,88.909ZM247,83.636a1.341,1.341,0,0,1,.018-1.907h0a1.342,1.342,0,0,1,1.908.008h0a1.351,1.351,0,0,1-.018,1.908v.009a1.357,1.357,0,0,1-.945.378h0A1.363,1.363,0,0,1,247,83.636Zm127.365-2.15a1.35,1.35,0,0,1,1.044-1.6h0a1.353,1.353,0,0,1,1.6,1.044h0a1.354,1.354,0,0,1-1.043,1.6h0a1.547,1.547,0,0,1-.279.027h0A1.356,1.356,0,0,1,374.368,81.486ZM252.24,78.669a1.353,1.353,0,0,1,.134-1.907h0a1.354,1.354,0,0,1,1.908.135h0a1.361,1.361,0,0,1-.134,1.907h0a1.356,1.356,0,0,1-.883.324h0A1.362,1.362,0,0,1,252.24,78.669Zm119.986-3.761h0a1.342,1.342,0,0,1,.684-1.781h0a1.352,1.352,0,0,1,1.782.674h0a1.342,1.342,0,0,1-.684,1.782h0a1.321,1.321,0,0,1-.549.126h0A1.367,1.367,0,0,1,372.226,74.908Zm-114.453-.882a1.348,1.348,0,0,1,.252-1.889h0a1.348,1.348,0,0,1,1.89.243h0a1.357,1.357,0,0,1-.243,1.9h0a1.347,1.347,0,0,1-.828.279h0A1.343,1.343,0,0,1,257.773,74.026Zm5.8-4.292a1.357,1.357,0,0,1,.36-1.88h0a1.346,1.346,0,0,1,1.872.36h0a1.342,1.342,0,0,1-.352,1.871h0a1.335,1.335,0,0,1-.764.234h0A1.355,1.355,0,0,1,263.577,69.734Zm105.194-.855A1.361,1.361,0,0,1,369.1,67h0a1.344,1.344,0,0,1,1.88.324h0a1.348,1.348,0,0,1-.324,1.881h0a1.365,1.365,0,0,1-.774.243h0A1.37,1.37,0,0,1,368.771,68.879Zm-99.148-3.1a1.359,1.359,0,0,1,.469-1.853h0a1.359,1.359,0,0,1,1.853.467h0a1.36,1.36,0,0,1-.468,1.854h0a1.382,1.382,0,0,1-.693.189h0A1.351,1.351,0,0,1,269.623,65.784Zm94.632-2.222a1.349,1.349,0,0,1-.01-1.908h0a1.352,1.352,0,0,1,1.908-.009h0a1.342,1.342,0,0,1,.009,1.908h0a1.32,1.32,0,0,1-.954.4h0A1.344,1.344,0,0,1,364.255,63.562ZM275.895,62.2a1.356,1.356,0,0,1,.576-1.826h0v.008h0a1.343,1.343,0,0,1,1.818.567h0a1.354,1.354,0,0,1-.576,1.827h0a1.405,1.405,0,0,1-.621.153h0A1.36,1.36,0,0,1,275.895,62.2Zm6.469-3.212a1.348,1.348,0,0,1,.685-1.782h0a1.362,1.362,0,0,1,1.781.684h0a1.345,1.345,0,0,1-.684,1.782h0a1.31,1.31,0,0,1-.549.117h0A1.352,1.352,0,0,1,282.364,58.991Zm76.537.063h0a1.354,1.354,0,0,1-.316-1.881h0a1.355,1.355,0,0,1,1.89-.315h0a1.343,1.343,0,0,1,.306,1.881h0a1.34,1.34,0,0,1-1.1.567h0A1.345,1.345,0,0,1,358.9,59.054Zm-69.887-2.879a1.352,1.352,0,0,1,.783-1.737h0a1.354,1.354,0,0,1,1.745.792h0a1.347,1.347,0,0,1-.791,1.736h0a1.436,1.436,0,0,1-.477.081h0A1.355,1.355,0,0,1,289.014,56.175Zm63.894-.747h0a1.351,1.351,0,0,1-.6-1.809h0a1.361,1.361,0,0,1,1.818-.6h0a1.338,1.338,0,0,1,.594,1.809h0a1.337,1.337,0,0,1-1.206.747h0A1.294,1.294,0,0,1,352.908,55.428Zm-57.092-1.665a1.361,1.361,0,0,1,.891-1.691h0a1.359,1.359,0,0,1,1.692.89h0a1.353,1.353,0,0,1-.891,1.692h0a1.263,1.263,0,0,1-.4.063h0A1.356,1.356,0,0,1,295.816,53.763Zm50.6-1.008a1.344,1.344,0,0,1-.864-1.7h0a1.353,1.353,0,0,1,1.709-.864h0a1.357,1.357,0,0,1,.855,1.71h0a1.348,1.348,0,0,1-1.278.926h0A1.356,1.356,0,0,1,346.421,52.755Zm-43.667-.99a1.347,1.347,0,0,1,1-1.628h0a1.343,1.343,0,0,1,1.628.99h0a1.355,1.355,0,0,1-1,1.628h0a1.212,1.212,0,0,1-.316.036h0A1.354,1.354,0,0,1,302.754,51.765Zm7.054-1.574a1.347,1.347,0,0,1,1.089-1.566h0a1.355,1.355,0,0,1,1.566,1.1h0a1.361,1.361,0,0,1-1.1,1.566h0a1.9,1.9,0,0,1-.234.018h0A1.334,1.334,0,0,1,309.808,50.191Zm29.792.8a1.353,1.353,0,0,1-1.071-1.584h0a1.364,1.364,0,0,1,1.584-1.071h0a1.364,1.364,0,0,1,1.071,1.584h0a1.357,1.357,0,0,1-1.332,1.1h0A1.266,1.266,0,0,1,339.6,50.992Zm-22.666-1.908a1.351,1.351,0,0,1,1.207-1.475h0a1.345,1.345,0,0,1,1.484,1.2h0a1.355,1.355,0,0,1-1.206,1.485h0a.723.723,0,0,1-.144.009h0A1.368,1.368,0,0,1,316.934,49.084Zm15.666.972v-.009a1.339,1.339,0,0,1-1.242-1.449h0a1.343,1.343,0,0,1,1.449-1.232h0a1.345,1.345,0,0,1,1.242,1.448h0a1.354,1.354,0,0,1-1.35,1.242h-.1Zm-8.467-1.529a1.362,1.362,0,0,1,1.332-1.377h0a1.34,1.34,0,0,1,1.367,1.322h0a1.343,1.343,0,0,1-1.323,1.377h-.017A1.356,1.356,0,0,1,324.133,48.527Z" fill="#7048a3"/>
          </g>
          <g id="Group_3" data-name="Group 3">
            <path id="Path_3" data-name="Path 3" d="M374.089,402.125a1.407,1.407,0,0,1-.513-.1,1.464,1.464,0,0,1-.441-.3,1.369,1.369,0,0,1-.4-.954,1.355,1.355,0,0,1,.4-.954,1.393,1.393,0,0,1,1.908,0,1.35,1.35,0,0,1,.4.954,1.352,1.352,0,0,1-1.35,1.35Z" fill="#7048a3"/>
          </g>
        </g>
        <path id="Path_4" data-name="Path 4" d="M76.037,418.094H410.773c-1.79-9.446-3.417-18.9-.577-27.809,5.288-16.584,24.417-25.859,29.494-42.508,4.524-14.836-3.545-30.433-12.509-43.09s-19.526-25.483-20.764-40.943c-1.057-13.207,4.994-25.911,11.89-37.224s14.91-22.259,18.515-35.008,1.675-28.195-8.664-36.479c-12.3-9.859-30.172-5.864-45.5-2.154s-34.217,5.536-44.26-6.619c-6.428-7.779-6.838-18.812-11.038-27.987-8.382-18.314-31.564-26.431-51.29-22.366s-36.159,17.788-49.089,33.23-23.221,32.954-36.21,48.346c-11,13.031-26.965,25.343-43.541,21.353-14.864-3.578-24.855-19.306-39.97-21.6-10.824-1.645-21.795,4.455-28.287,13.271s-9.124,19.916-10.1,30.821a120.775,120.775,0,0,0,22.069,80.549c8.765,12.17,20.509,26.523,14.456,40.245-7.805,17.7-38.492,16.1-44.507,34.476-2.347,7.171.2,14.985,3.4,21.82A115.292,115.292,0,0,0,76.037,418.094Z" fill="#dce6ff"/>
        <g id="Group_6" data-name="Group 6">
          <path id="Path_5" data-name="Path 5" d="M387.859,247.3c-14.815-14.265-11.48-39.349-22.646-56.621a20.146,20.146,0,0,0-7.894-7.564c-3.336-1.583-7.562-1.646-10.53.551-3.562,2.637-4.42,7.772-3.374,12.079s3.607,8.056,5.841,11.884c7.979,13.669,12.2,29.9,9.7,45.53-2.658,16.669-12.621,31.668-14.144,48.478-1.051,11.612,2.07,23.328,7.306,33.747s12.513,19.669,20.174,28.46c-3.573-9.338-2.474-20.315-.257-30.065s6.578-18.889,11.591-27.539c5.488-9.47,11.885-18.673,14.6-29.277S395.743,254.891,387.859,247.3Z" fill="url(#linear-gradient)"/>
          <path id="Path_6" data-name="Path 6" d="M387.859,247.3c-14.815-14.265-11.48-39.349-22.646-56.621a20.146,20.146,0,0,0-7.894-7.564c-3.336-1.583-7.562-1.646-10.53.551-3.562,2.637-4.42,7.772-3.374,12.079s3.607,8.056,5.841,11.884c7.979,13.669,12.2,29.9,9.7,45.53-2.658,16.669-12.621,31.668-14.144,48.478-1.051,11.612,2.07,23.328,7.306,33.747s12.513,19.669,20.174,28.46c-3.573-9.338-2.474-20.315-.257-30.065s6.578-18.889,11.591-27.539c5.488-9.47,11.885-18.673,14.6-29.277S395.743,254.891,387.859,247.3Z" opacity="0.2"/>
          <path id="Path_7" data-name="Path 7" d="M377.8,229.829c-.725,12.463-6.766,24.726-13.5,35.566-6.9,11.1-14.8,22.015-19.22,34.151-.091.7-.19,1.389-.254,2.09-1.051,11.612,2.07,23.328,7.306,33.747s12.513,19.669,20.174,28.46c-3.573-9.338-2.474-20.315-.257-30.065s6.578-18.889,11.591-27.539c5.488-9.47,11.885-18.673,14.6-29.277s-2.486-22.071-10.37-29.663C382.848,242.474,379.917,236.409,377.8,229.829Z" opacity="0.2"/>
          <g id="Group_5" data-name="Group 5">
            <path id="Path_8" data-name="Path 8" d="M384.946,350.781a299.413,299.413,0,0,1-2.712-72.583c1.14-13.475,3.412-27.434,11.231-38.466,5.766-8.135,14.285-14.266,18.815-23.148,7.988-15.659,1.706-35.957,10.409-51.23,3.132-5.5,9.238-10.225,15.369-8.666,6.29,1.6,9.343,8.951,9.407,15.441.184,18.561-15.6,33.641-18.768,51.932-3.162,18.268,6.654,36.132,8.625,54.567,1.69,15.812-2.509,31.827-9.495,46.113s-16.668,27.063-26.558,39.517C393.493,363,386.194,358.559,384.946,350.781Z" fill="url(#linear-gradient)"/>
            <path id="Path_9" data-name="Path 9" d="M384.946,350.781a299.413,299.413,0,0,1-2.712-72.583c1.14-13.475,3.412-27.434,11.231-38.466,5.766-8.135,14.285-14.266,18.815-23.148,7.988-15.659,1.706-35.957,10.409-51.23,3.132-5.5,9.238-10.225,15.369-8.666,6.29,1.6,9.343,8.951,9.407,15.441.184,18.561-15.6,33.641-18.768,51.932-3.162,18.268,6.654,36.132,8.625,54.567,1.69,15.812-2.509,31.827-9.495,46.113s-16.668,27.063-26.558,39.517C393.493,363,386.194,358.559,384.946,350.781Z" opacity="0.2"/>
            <path id="Path_10" data-name="Path 10" d="M411.53,217.954c-4.672,8.156-12.6,14.069-18.065,21.778-7.819,11.032-10.091,24.991-11.231,38.466a299.438,299.438,0,0,0,.9,59.408,187.389,187.389,0,0,0,11.618,24.737,26.554,26.554,0,0,0,6.515,1.915c2.865-3.608,5.71-7.244,8.479-10.935,9.276-16.7,16.628-34.42,18.627-53.3C431.348,271.943,422.25,244.323,411.53,217.954Z" opacity="0.2"/>
            <path id="Path_11" data-name="Path 11" d="M373.641,363.062c-15.687-6.259-23.448-24.891-22.471-41.752s8.767-32.463,16.191-47.634,14.784-31.089,14.8-47.978c.013-19-9.289-36.839-11.19-55.747a72.82,72.82,0,0,1,8.787-42.433c2.836-5.086,6.792-10.179,12.468-11.483,8.271-1.9,16.329,5.541,18.354,13.783s-.268,16.853-2.413,25.064c-3.807,14.569-7.21,29.565-5.81,44.558,1.617,17.308,9.494,33.322,14.26,50.039,11.484,40.284,3.9,85.571-20.082,119.916C388.649,367.516,381.168,366.065,373.641,363.062Z" fill="url(#linear-gradient-3)"/>
            <path id="Path_12" data-name="Path 12" d="M417.9,269.981a1.8,1.8,0,0,0-2.384.891,69.5,69.5,0,0,1-16.008,22.1c.4-1.619.784-3.245,1.1-4.883,3.708-19.066.962-38.349-2.215-54.7q-.395-2.034-.813-4.077a108.076,108.076,0,0,0,6.867-12.793,1.8,1.8,0,0,0-3.28-1.483c-1.4,3.094-2.967,6.131-4.667,9.083-.407-1.925-.815-3.841-1.22-5.729-2.679-12.5-5.449-25.423-6.533-38.3a118.883,118.883,0,0,1-.02-20.842c5.462-4.884,10.77-10.059,15.775-15.4a1.8,1.8,0,0,0-2.626-2.461c-3.993,4.261-8.183,8.412-12.489,12.394a73.248,73.248,0,0,1,8.44-25.415,1.8,1.8,0,0,0-3.131-1.775c-7.375,13.01-10.685,29.132-9.892,47.97a80.855,80.855,0,0,0-9.385-9.9,1.8,1.8,0,1,0-2.392,2.689,77.219,77.219,0,0,1,12.191,13.786.171.171,0,0,0,.018.02c1.145,12.855,3.874,25.634,6.525,38,1.048,4.891,2.132,9.95,3.1,14.93,2.02,10.4,3.854,22.005,3.914,33.92a90.781,90.781,0,0,0-14.123-20.7,1.8,1.8,0,1,0-2.664,2.419,87.249,87.249,0,0,1,16.418,26.223,1.847,1.847,0,0,0,.117.2,92.44,92.44,0,0,1-1.448,11.268,102.789,102.789,0,0,1-2.521,10.007,1.823,1.823,0,0,0-.16.551c-1.785,5.843-3.965,11.591-6.1,17.218-1.176,3.1-2.384,6.3-3.522,9.49a203.286,203.286,0,0,1-15.1-36.506,1.8,1.8,0,0,0-3.445,1.044A206.716,206.716,0,0,0,383.181,329.3c-3.482,10.558-6.6,23.563-4.617,36.495a1.8,1.8,0,1,0,3.557-.544c-2.111-13.773,1.979-27.88,5.778-38.632,1.2-3.393,2.5-6.832,3.765-10.158,2.138-5.635,4.318-11.389,6.124-17.272a73.082,73.082,0,0,0,21.005-26.819A1.8,1.8,0,0,0,417.9,269.981Z" opacity="0.1"/>
          </g>
          <path id="Path_13" data-name="Path 13" d="M408.3,362.135c-7.793.433-15.737,1.214-23.6,1.573-7.862-.359-15.805-1.14-23.6-1.573a93.086,93.086,0,0,0,13.49,55.806h20.215A93.094,93.094,0,0,0,408.3,362.135Z" fill="#ffb227"/>
          <path id="Path_14" data-name="Path 14" d="M408.3,362.135c-7.793.433-15.737,1.214-23.6,1.573-7.862-.359-15.805-1.14-23.6-1.573a91.545,91.545,0,0,0,.353,17.879l47.1-12.652Q408.5,364.746,408.3,362.135Z" opacity="0.1"/>
          <rect id="Rectangle_2" data-name="Rectangle 2" width="55.542" height="9.604" transform="translate(356.928 356.706)" fill="#ffb227"/>
          <rect id="Rectangle_3" data-name="Rectangle 3" width="55.542" height="9.604" transform="translate(356.928 356.706)" opacity="0.3"/>
        </g>
        <g id="Group_22" data-name="Group 22">
          <rect id="Rectangle_4" data-name="Rectangle 4" width="230.885" height="298.626" rx="18.024" transform="translate(135.041 119.467)" fill="#7048a3"/>
          <g id="Group_7" data-name="Group 7" opacity="0.1">
            <path id="Path_15" data-name="Path 15" d="M365.926,190.262,141.949,414.239a17.931,17.931,0,0,0,11.116,3.855h30.263l182.6-182.6Z" fill="#fff"/>
            <path id="Path_16" data-name="Path 16" d="M135.041,398.958,365.926,168.073V137.491A18.024,18.024,0,0,0,347.9,119.467H324.066L135.041,308.492Z" fill="#fff"/>
          </g>
          <path id="Path_17" data-name="Path 17" d="M347.9,123.966H300.288v5.192a6.077,6.077,0,0,1-6.071,6.071H206.75a6.077,6.077,0,0,1-6.071-6.071v-5.192H153.065a13.54,13.54,0,0,0-13.525,13.525V400.07a13.539,13.539,0,0,0,13.525,13.524H347.9a13.539,13.539,0,0,0,13.525-13.524V137.491A13.54,13.54,0,0,0,347.9,123.966Z" fill="#fff"/>
          <path id="Path_18" data-name="Path 18" d="M252.74,127.646a2.256,2.256,0,1,1-2.256-2.256A2.256,2.256,0,0,1,252.74,127.646Z" opacity="0.2"/>
          <path id="Path_19" data-name="Path 19" d="M230.068,127.646a2.256,2.256,0,1,1-2.256-2.256A2.256,2.256,0,0,1,230.068,127.646Z" opacity="0.2"/>
          <path id="Path_20" data-name="Path 20" d="M275.411,127.646a2.256,2.256,0,1,1-2.256-2.256A2.256,2.256,0,0,1,275.411,127.646Z" opacity="0.2"/>
          <g id="Group_10" data-name="Group 10">
            <g id="Group_8" data-name="Group 8" opacity="0.1">
              <path id="Path_21" data-name="Path 21" d="M178.4,199.748h-15.67A11.642,11.642,0,0,1,151.1,188.119v-15.67a11.642,11.642,0,0,1,11.629-11.629H178.4a11.642,11.642,0,0,1,11.629,11.629v15.67A11.641,11.641,0,0,1,178.4,199.748Zm-15.67-30.83a3.535,3.535,0,0,0-3.531,3.531v15.67a3.535,3.535,0,0,0,3.531,3.531H178.4a3.535,3.535,0,0,0,3.531-3.531v-15.67a3.535,3.535,0,0,0-3.531-3.531Z"/>
            </g>
            <g id="Group_9" data-name="Group 9">
              <path id="Path_22" data-name="Path 22" d="M339.926,169.882H202.507a3.551,3.551,0,0,1-3.552-3.551h0a3.551,3.551,0,0,1,3.552-3.551H339.926a3.551,3.551,0,0,1,3.552,3.551h0A3.551,3.551,0,0,1,339.926,169.882Z" opacity="0.1"/>
              <rect id="Rectangle_5" data-name="Rectangle 5" width="144.523" height="7.103" rx="3.551" transform="translate(198.638 176.985)" opacity="0.1"/>
              <path id="Path_23" data-name="Path 23" d="M269.124,198.293H202.507a3.551,3.551,0,0,1-3.552-3.551h0a3.552,3.552,0,0,1,3.552-3.552h66.617a3.551,3.551,0,0,1,3.551,3.552h0A3.551,3.551,0,0,1,269.124,198.293Z" opacity="0.1"/>
            </g>
          </g>
          <g id="Group_13" data-name="Group 13">
            <g id="Group_11" data-name="Group 11" opacity="0.1">
              <path id="Path_24" data-name="Path 24" d="M178.4,257.288h-15.67a11.643,11.643,0,0,1-11.629-11.63V229.989a11.643,11.643,0,0,1,11.629-11.63H178.4a11.642,11.642,0,0,1,11.629,11.63v15.669A11.642,11.642,0,0,1,178.4,257.288Zm-15.67-30.831a3.536,3.536,0,0,0-3.531,3.532v15.669a3.536,3.536,0,0,0,3.531,3.532H178.4a3.536,3.536,0,0,0,3.531-3.532V229.989a3.536,3.536,0,0,0-3.531-3.532Z"/>
            </g>
            <g id="Group_12" data-name="Group 12">
              <path id="Path_25" data-name="Path 25" d="M339.926,227.422H202.507a3.552,3.552,0,0,1-3.552-3.552h0a3.551,3.551,0,0,1,3.552-3.551H339.926a3.551,3.551,0,0,1,3.552,3.551h0A3.552,3.552,0,0,1,339.926,227.422Z" opacity="0.1"/>
              <path id="Path_26" data-name="Path 26" d="M339.61,241.627H202.19a3.551,3.551,0,0,1-3.552-3.551h0a3.552,3.552,0,0,1,3.552-3.552H339.61a3.551,3.551,0,0,1,3.551,3.552h0A3.551,3.551,0,0,1,339.61,241.627Z" opacity="0.1"/>
              <rect id="Rectangle_6" data-name="Rectangle 6" width="73.72" height="7.103" rx="3.551" transform="translate(198.955 248.73)" opacity="0.1"/>
            </g>
          </g>
          <g id="Group_16" data-name="Group 16">
            <g id="Group_14" data-name="Group 14" opacity="0.1">
              <path id="Path_27" data-name="Path 27" d="M178.4,314.827h-15.67A11.642,11.642,0,0,1,151.1,303.2v-15.67A11.643,11.643,0,0,1,162.727,275.9H178.4a11.642,11.642,0,0,1,11.629,11.629V303.2A11.642,11.642,0,0,1,178.4,314.827ZM162.727,284a3.535,3.535,0,0,0-3.531,3.531V303.2a3.535,3.535,0,0,0,3.531,3.531H178.4a3.535,3.535,0,0,0,3.531-3.531v-15.67A3.535,3.535,0,0,0,178.4,284Z"/>
            </g>
            <g id="Group_15" data-name="Group 15">
              <path id="Path_28" data-name="Path 28" d="M339.926,284.961H202.507a3.551,3.551,0,0,1-3.552-3.551h0a3.552,3.552,0,0,1,3.552-3.552H339.926a3.552,3.552,0,0,1,3.552,3.552h0A3.551,3.551,0,0,1,339.926,284.961Z" opacity="0.1"/>
              <path id="Path_29" data-name="Path 29" d="M339.61,299.167H202.19a3.552,3.552,0,0,1-3.552-3.552h0a3.551,3.551,0,0,1,3.552-3.551H339.61a3.551,3.551,0,0,1,3.551,3.551h0A3.551,3.551,0,0,1,339.61,299.167Z" opacity="0.1"/>
              <path id="Path_30" data-name="Path 30" d="M269.124,313.372H202.507a3.551,3.551,0,0,1-3.552-3.551h0a3.552,3.552,0,0,1,3.552-3.552h66.617a3.551,3.551,0,0,1,3.551,3.552h0A3.551,3.551,0,0,1,269.124,313.372Z" opacity="0.1"/>
            </g>
          </g>
          <g id="Group_19" data-name="Group 19">
            <g id="Group_17" data-name="Group 17" opacity="0.1">
              <path id="Path_31" data-name="Path 31" d="M178.4,372.367h-15.67a11.643,11.643,0,0,1-11.629-11.63V345.068a11.643,11.643,0,0,1,11.629-11.63H178.4a11.642,11.642,0,0,1,11.629,11.63v15.669A11.642,11.642,0,0,1,178.4,372.367Zm-15.67-30.831a3.536,3.536,0,0,0-3.531,3.532v15.669a3.536,3.536,0,0,0,3.531,3.532H178.4a3.536,3.536,0,0,0,3.531-3.532V345.068a3.536,3.536,0,0,0-3.531-3.532Z"/>
            </g>
            <g id="Group_18" data-name="Group 18">
              <path id="Path_32" data-name="Path 32" d="M339.926,342.5H202.507a3.552,3.552,0,0,1-3.552-3.552h0a3.551,3.551,0,0,1,3.552-3.551H339.926a3.551,3.551,0,0,1,3.552,3.551h0A3.552,3.552,0,0,1,339.926,342.5Z" opacity="0.1"/>
              <rect id="Rectangle_7" data-name="Rectangle 7" width="144.523" height="7.103" rx="3.551" transform="translate(198.638 349.603)" opacity="0.1"/>
              <rect id="Rectangle_8" data-name="Rectangle 8" width="73.72" height="7.103" rx="3.551" transform="translate(198.955 363.809)" opacity="0.1"/>
            </g>
          </g>
          <g id="Group_20" data-name="Group 20">
            <circle id="Ellipse_1" data-name="Ellipse 1" cx="2.193" cy="2.193" r="2.193" transform="translate(152.602 129.902)" fill="#ff58d5"/>
            <circle id="Ellipse_2" data-name="Ellipse 2" cx="2.193" cy="2.193" r="2.193" transform="translate(160.485 129.902)" fill="#ff58d5"/>
            <circle id="Ellipse_3" data-name="Ellipse 3" cx="2.193" cy="2.193" r="2.193" transform="translate(168.369 129.902)" fill="#ff58d5"/>
            <circle id="Ellipse_4" data-name="Ellipse 4" cx="2.193" cy="2.193" r="2.193" transform="translate(176.252 129.902)" fill="#ff58d5"/>
            <circle id="Ellipse_5" data-name="Ellipse 5" cx="2.193" cy="2.193" r="2.193" transform="translate(184.136 129.902)" fill="#ff58d5"/>
          </g>
          <g id="Group_21" data-name="Group 21">
            <rect id="Rectangle_9" data-name="Rectangle 9" width="12.808" height="7.079" transform="translate(307.8 128.365)" fill="#ff58d5"/>
            <rect id="Rectangle_10" data-name="Rectangle 10" width="1.787" height="3.817" transform="translate(322.395 133.813) rotate(180)" fill="#ff58d5"/>
          </g>
          <text id="_100_" data-name="100%" transform="translate(329.011 134.288)" fill="#ff58d5" font-size="7.395" font-family="Helvetica"><tspan x="0" y="0">100%</tspan></text>
          <path id="Path_33" data-name="Path 33" d="M198.362,209.131c-8.978,8.156-18.3,17.361-26.49,26.312a69.835,69.835,0,0,1-6.964-10.775l-10.765,2.686a106.807,106.807,0,0,0,18.222,18.358C181.053,233.964,189.674,220.879,198.362,209.131Z" fill="#002b66"/>
          <path id="Path_34" data-name="Path 34" d="M198.362,266.671c-8.978,8.155-18.3,17.36-26.49,26.312a69.845,69.845,0,0,1-6.964-10.776l-10.765,2.687a106.809,106.809,0,0,0,18.222,18.358C181.053,291.5,189.674,278.419,198.362,266.671Z" fill="#002b66"/>
          <path id="Path_35" data-name="Path 35" d="M198.362,324.21c-8.978,8.156-18.3,17.361-26.49,26.312a69.836,69.836,0,0,1-6.964-10.775l-10.765,2.686a106.807,106.807,0,0,0,18.222,18.358C181.053,349.043,189.674,335.958,198.362,324.21Z" fill="#002b66"/>
        </g>
        <path id="Path_36" data-name="Path 36" d="M188.919,132.1c-6.117,10.474-12.253,22.053-17.375,33.048a69.956,69.956,0,0,1-9.876-8.189l-9.463,5.792A106.851,106.851,0,0,0,175.1,174.791C179.859,160.977,184.156,145.909,188.919,132.1Z" fill="#002b66"/>
        <g id="Group_25" data-name="Group 25">
          <path id="Path_37" data-name="Path 37" d="M78.4,404.51l4.119-9.81,7.817,4.552-6.5,8.424Z" fill="#ff58d5"/>
          <path id="Path_38" data-name="Path 38" d="M125.464,411.083l-1.93-12.343h12.676l-1.93,12.343Z" fill="#ff58d5"/>
          <path id="Path_39" data-name="Path 39" d="M80.112,290.077c1.212,3.4,2.424,7.162,1.118,10.527.951,1.792-.3,4.608-1.929,5.819a4.434,4.434,0,0,1-5.575-.39,6.923,6.923,0,0,1-1.7-4.289,17.157,17.157,0,0,1,3.3-11.93c-.042-1.063.519-2.254,1.582-2.313S79.755,289.074,80.112,290.077Z" fill="#ff58d5"/>
          <path id="Path_40" data-name="Path 40" d="M114.476,204.219c-1.573-2.255-1.416-5.386-.222-7.863a18.475,18.475,0,0,1,5.419-6.124,51.376,51.376,0,0,0,6.286-5.323,17.965,17.965,0,0,0,4.492-13.856c-.272-2.466-1.17-5.017-3.145-6.518-3.084-2.345-7.751-1.239-10.62,1.364s-4.41,6.318-6.012,9.845-3.5,7.159-6.751,9.259c-2,1.292-4.384,1.9-6.391,3.19a11.414,11.414,0,0,0-4.352,13.3,6.605,6.605,0,0,0-1.216,7.1,10.9,10.9,0,0,0,5.293,5.218,16.855,16.855,0,0,0,14,.464c-.893-2.247-.418-5.56,1.423-7.127C113.554,206.4,114.561,205.364,114.476,204.219Z" fill="#002b66"/>
          <path id="Path_41" data-name="Path 41" d="M158.754,174.879a4.912,4.912,0,0,1,1.216-6.4c-.479-2.33,1.212-5.352,3.57-5.669a3.361,3.361,0,0,1,3.667,2.034,4.684,4.684,0,0,1-.158,2.621,22.052,22.052,0,0,1-5.511,9.519A9.108,9.108,0,0,1,158.754,174.879Z" fill="#ff58d5"/>
          <path id="Path_42" data-name="Path 42" d="M81.184,293.513a75.114,75.114,0,0,1,22.1-43.877c3.121-3.013,6.512-5.762,9.349-9.044s5.135-7.225,5.536-11.545a9.756,9.756,0,0,0-1.3-6.245,5.88,5.88,0,0,0-5.506-2.761c-6.651.94-12.246,5.867-16.572,11.006a88.6,88.6,0,0,0-20.584,58.3A14.481,14.481,0,0,0,81.184,293.513Z" fill="#ffb227"/>
          <path id="Path_43" data-name="Path 43" d="M81.184,293.513a75.114,75.114,0,0,1,22.1-43.877c3.121-3.013,6.512-5.762,9.349-9.044s5.135-7.225,5.536-11.545a9.756,9.756,0,0,0-1.3-6.245,5.88,5.88,0,0,0-5.506-2.761c-6.651.94-12.246,5.867-16.572,11.006a88.6,88.6,0,0,0-20.584,58.3A14.481,14.481,0,0,0,81.184,293.513Z" opacity="0.2"/>
          <path id="Path_44" data-name="Path 44" d="M123.472,321.174A131.872,131.872,0,0,1,90.8,398.161a19.352,19.352,0,0,1-7.706-5.135c3.206-17.485,15.885-32.7,17.281-50.418.744-9.44-1.728-18.8-2.914-28.191s-3.945-23.511,1.588-31.2c8.252,4.319,18.306,14.616,23.1,22.6a25.155,25.155,0,0,1,3.477,8.518C126.155,317.379,123.706,318.1,123.472,321.174Z" fill="#005898"/>
          <path id="Path_45" data-name="Path 45" d="M123.472,321.174A131.872,131.872,0,0,1,90.8,398.161a19.352,19.352,0,0,1-7.706-5.135c3.206-17.485,15.885-32.7,17.281-50.418.744-9.44-1.728-18.8-2.914-28.191s-3.945-23.511,1.588-31.2c8.252,4.319,18.306,14.616,23.1,22.6a25.155,25.155,0,0,1,3.477,8.518C126.155,317.379,123.706,318.1,123.472,321.174Z" opacity="0.3"/>
          <path id="Path_46" data-name="Path 46" d="M125.628,314.34a25.155,25.155,0,0,0-3.477-8.518c-4.689-7.806-14.4-17.809-22.544-22.288-.384.172-.753.352-1.116.537-4.434,7.274-2.512,19.378-1.3,28.324q.39.705.794,1.4c4.545,7.781,10.359,14.8,14.425,22.845a39.96,39.96,0,0,1,4.556,16.3,130.2,130.2,0,0,0,6.5-31.762C123.706,318.1,126.155,317.379,125.628,314.34Z" opacity="0.2"/>
          <path id="Path_47" data-name="Path 47" d="M128.192,283.122a354.663,354.663,0,0,1,8.6,118.564H123.823c-3.606-14.5-6.871-30.532-6.729-45.475.089-9.251,1.608-18.688-.741-27.636-2.092-7.97-7.065-14.808-11.195-21.939s-7.565-15.3-6.109-23.414A61.653,61.653,0,0,1,128.192,283.122Z" fill="#005898"/>
          <path id="Path_48" data-name="Path 48" d="M115.732,281.48c4.274,1.98,9.092,3.942,13.562,6.336-.363-1.566-.718-3.134-1.1-4.694a61.653,61.653,0,0,0-29.143.1c-1.456,8.11,1.98,16.284,6.109,23.414s9.1,13.969,11.195,21.939c2.349,8.948.83,18.385.741,27.636-.142,14.943,3.123,30.972,6.729,45.475h6.049A263.735,263.735,0,0,0,115.732,281.48Z" opacity="0.2"/>
          <path id="Path_49" data-name="Path 49" d="M129.8,290.121c-.172-.768-.332-1.539-.509-2.3-.155-.668-.315-1.334-.47-2-3.035-.921-5.4-2.348-9.051-3.233a45.417,45.417,0,0,0-6.6-1.147,62.773,62.773,0,0,0-8.6.7,19.028,19.028,0,0,0-7.1,3.964c-.12.288-.249.569-.355.866-.008.023-.017.046-.025.07q-.261.742-.466,1.525l-.031.118c-.134.521-.253,1.053-.353,1.6l-.015.083a34.078,34.078,0,0,0-.506,5.3c0,.039,0,.078,0,.118-.013.583-.014,1.17-.006,1.76l0,.161q.015.887.057,1.779l.005.106c.06,1.227.153,2.458.269,3.68l.009.1q.084.876.182,1.743l.024.218q.094.837.2,1.661l.033.261q.1.805.206,1.6c.014.1.027.2.041.3.043.322.086.637.129.954A52.423,52.423,0,0,0,129.8,290.121Z" opacity="0.2"/>
          <path id="Path_50" data-name="Path 50" d="M93.59,298.15c11.07,3.218,27.179-5.9,38.009-9.852-.864-11.453-3.448-23.441-4.312-34.894-.936-12.4-2.191-25.636-10.006-35.306-3.171-3.924-10.419-1.671-14.228,1.637s-5.906,8.149-7.464,12.948C89.494,251.461,88.3,279.13,93.59,298.15Z" fill="#ffb227"/>
          <path id="Path_51" data-name="Path 51" d="M127.287,253.4c-.824-10.919-1.9-22.487-7.484-31.7a26.842,26.842,0,0,0-6.725,2.81c-4.288,2.46-7.857,6.395-12.242,8.677a96.278,96.278,0,0,0,26.5,20.748C127.322,253.763,127.3,253.582,127.287,253.4Z" opacity="0.2"/>
          <path id="Path_52" data-name="Path 52" d="M108.128,203.68a98.168,98.168,0,0,0-1.486,15.416c2.526.69,5.251,1.64,7.821,1.132a84.727,84.727,0,0,0,.739-15.989A15.492,15.492,0,0,0,108.128,203.68Z" fill="#ff58d5"/>
          <path id="Path_53" data-name="Path 53" d="M107.006,212.33a29.56,29.56,0,0,0,7.916,4.045,86.164,86.164,0,0,0,.315-11.158,7.064,7.064,0,0,0-.987-1.2c-.025-.024-.056-.042-.082-.067a15.873,15.873,0,0,0-6.04-.266C107.621,206.545,107.256,209.433,107.006,212.33Z" opacity="0.2"/>
          <path id="Path_54" data-name="Path 54" d="M108.355,193.66a27.052,27.052,0,0,1,12.471,14.531,10.565,10.565,0,0,1-6.212,5,12.708,12.708,0,0,1-11.364-1.85,10.492,10.492,0,0,1-3.835-10.626C100.425,196.86,104.847,191.763,108.355,193.66Z" fill="#ff58d5"/>
          <path id="Path_55" data-name="Path 55" d="M163.327,175.3c-3.1,11.856-6.865,23.629-12.739,34.382s-13.978,20.5-24.41,26.932a27.855,27.855,0,0,1-10.557,4.223,13.984,13.984,0,0,1-10.805-2.649c-2.942-2.432-6.458-7.9-4.252-11.02,2.762-3.9,7.674-5.484,12.116-7.246a80.226,80.226,0,0,0,45.243-46.635Z" fill="#ffb227"/>
          <path id="Path_56" data-name="Path 56" d="M114.268,195.582a1.985,1.985,0,0,1-.479,1.539,4.822,4.822,0,0,1-1.294,1.03,17.956,17.956,0,0,1-8.457,2.541,6.335,6.335,0,0,1,.806,5.148c.949.76,1.657,1.744,2.606,2.5a18.278,18.278,0,0,0-2.981-1.177,1.661,1.661,0,0,0-1.653.024,1.13,1.13,0,0,0-.255,1.2,2.575,2.575,0,0,0,.757,1.034,7.574,7.574,0,0,0,3.366,1.778,8.491,8.491,0,0,1,.069,3.752c-3.448-.841-7.672-2.465-9.479-5.519-1.22-2.062-1.246-4.6-1.053-6.994.275-3.427.985-6.96,3.064-9.7s5.826-4.445,9.057-3.273C110.891,190.39,113.819,192.908,114.268,195.582Z" fill="#002b66"/>
          <g id="Group_23" data-name="Group 23">
            <rect id="Rectangle_11" data-name="Rectangle 11" width="17.114" height="5.892" rx="2.219" transform="translate(121.315 398.74)" fill="#005898"/>
            <rect id="Rectangle_12" data-name="Rectangle 12" width="17.114" height="5.892" rx="2.219" transform="translate(121.315 398.74)" fill="#005898" style="mix-blend-mode: screen;isolation: isolate"/>
          </g>
          <g id="Group_24" data-name="Group 24">
            <rect id="Rectangle_13" data-name="Rectangle 13" width="17.114" height="5.892" rx="2.219" transform="translate(81.3 388.899) rotate(30.636)" fill="#005898"/>
            <rect id="Rectangle_14" data-name="Rectangle 14" width="17.114" height="5.892" rx="2.219" transform="translate(81.3 388.899) rotate(30.636)" fill="#005898" style="mix-blend-mode: screen;isolation: isolate"/>
          </g>
          <path id="Path_57" data-name="Path 57" d="M125.464,411.083l-4.149,7.011h26.169l-13.2-7.011Z" fill="#005898"/>
          <path id="Path_58" data-name="Path 58" d="M87.029,412.572l-3.189-4.9L78.4,404.511l-6.618,3.081,12.6,7.339,1.213.882,7.746.781Z" fill="#005898"/>
        </g>
        <path id="Path_59" data-name="Path 59" d="M292.42,407.676H208.547a2.764,2.764,0,0,1-2.764-2.765h0a2.764,2.764,0,0,1,2.764-2.764H292.42a2.765,2.765,0,0,1,2.765,2.764h0A2.765,2.765,0,0,1,292.42,407.676Z" opacity="0.2"/>
      </g>
      <g id="Group_27" data-name="Group 27" opacity="0.2">
        <circle id="Ellipse_6" data-name="Ellipse 6" cx="3.679" cy="3.679" r="3.679" transform="translate(426.573 119.467)"/>
        <path id="Path_60" data-name="Path 60" d="M208.618,78.867a3.158,3.158,0,1,1-3.158-3.158A3.158,3.158,0,0,1,208.618,78.867Z"/>
        <path id="Path_61" data-name="Path 61" d="M111.948,66a2.049,2.049,0,1,1-2.049-2.048A2.048,2.048,0,0,1,111.948,66Z"/>
        <path id="Path_62" data-name="Path 62" d="M109.679,137.679a2.235,2.235,0,1,1-2.235-2.235A2.235,2.235,0,0,1,109.679,137.679Z"/>
        <path id="Path_63" data-name="Path 63" d="M57.836,184.657a4.373,4.373,0,1,1-4.373-4.373A4.373,4.373,0,0,1,57.836,184.657Z"/>
        <path id="Path_64" data-name="Path 64" d="M321.5,78.718a2.286,2.286,0,1,1-2.286-2.287A2.286,2.286,0,0,1,321.5,78.718Z"/>
        <path id="Path_65" data-name="Path 65" d="M394.733,80.3h0a5.784,5.784,0,0,0,3.733,3.733h0a5.784,5.784,0,0,0-3.733,3.733h0A5.784,5.784,0,0,0,391,84.032h0a5.784,5.784,0,0,0,3.733-3.733Z"/>
        <path id="Path_66" data-name="Path 66" d="M445.243,382.682h0a5.785,5.785,0,0,0,3.732,3.732h0a5.787,5.787,0,0,0-3.732,3.733h0a5.79,5.79,0,0,0-3.733-3.733h0a5.789,5.789,0,0,0,3.733-3.732Z"/>
        <path id="Path_67" data-name="Path 67" d="M456.832,210.553h0a5.787,5.787,0,0,0,3.733,3.732h0a5.788,5.788,0,0,0-3.733,3.733h0a5.787,5.787,0,0,0-3.732-3.733h0a5.785,5.785,0,0,0,3.732-3.732Z"/>
        <path id="Path_68" data-name="Path 68" d="M351.088,100.338h0a5.785,5.785,0,0,0,3.732,3.732h0a5.789,5.789,0,0,0-3.732,3.733h0a5.793,5.793,0,0,0-3.733-3.733h0a5.789,5.789,0,0,0,3.733-3.732Z"/>
        <path id="Path_69" data-name="Path 69" d="M252.74,47.574h0a5.787,5.787,0,0,0,3.732,3.733h0a5.785,5.785,0,0,0-3.732,3.732h0a5.789,5.789,0,0,0-3.733-3.732h0a5.79,5.79,0,0,0,3.733-3.733Z"/>
        <path id="Path_70" data-name="Path 70" d="M57.836,85.518h0a5.786,5.786,0,0,0,3.733,3.733h0a5.785,5.785,0,0,0-3.733,3.732h0A5.785,5.785,0,0,0,54.1,89.251h0a5.786,5.786,0,0,0,3.733-3.733Z"/>
        <path id="Path_71" data-name="Path 71" d="M162.439,75.395h0a5.785,5.785,0,0,0,3.732,3.733h0a5.785,5.785,0,0,0-3.732,3.733h0a5.788,5.788,0,0,0-3.733-3.733h0a5.788,5.788,0,0,0,3.733-3.733Z"/>
        <path id="Path_72" data-name="Path 72" d="M52.822,261.637h0a5.784,5.784,0,0,0,3.733,3.733h0a5.784,5.784,0,0,0-3.733,3.733h0a5.784,5.784,0,0,0-3.733-3.733h0a5.784,5.784,0,0,0,3.733-3.733Z"/>
      </g>
    </g>
  </g>
</svg>
